<?xml version="1.0" encoding="UTF-8"?>
<svg width="1452px" height="339px" viewBox="0 0 1452 339" version="1.1" xmlns="http://www.w3.org/2000/svg" xmlns:xlink="http://www.w3.org/1999/xlink">
    <!-- Generator: Sketch 50.2 (55047) - http://www.bohemiancoding.com/sketch -->
    <title>Slice</title>
    <desc>Created with Sketch.</desc>
    <defs>
        <polygon id="path-1" points="0.0004 0.000134764646 1455 0.000134764646 1455 699.9995 0.0004 699.9995"></polygon>
    </defs>
    <g id="Page-1" stroke="none" stroke-width="1" fill="none" fill-rule="evenodd">
        <g id="Group-3" transform="translate(-3.000000, 65.000000)">
            <mask id="mask-2" fill="white">
                <use xlink:href="#path-1"></use>
            </mask>
            <g id="Clip-2"></g>
            <path d="M0.4224,68.1355 C0.4224,68.1355 368.2414,-52.9155 750.4344,27.6805 C1132.6284,108.2765 1139.2754,164.3465 1455.0004,75.8645 L1455.0004,699.9995 L0.0004,699.9995 L0.4224,68.1355 Z" id="Fill-1" fill="#FF3131" mask="url(#mask-2)"></path>
        </g>
        <g id="Group-188" transform="translate(168.000000, 6.000000)">
            <path d="M1035.4717,54.9011 C1032.5807,52.1821 1028.3787,50.7291 1024.6037,49.7501 C1021.5227,48.9501 1017.9937,48.3211 1014.7807,48.7551 L1014.7277,48.7021 C1014.7257,48.7211 1014.7247,48.7411 1014.7217,48.7601 C1014.7027,48.7631 1014.6837,48.7631 1014.6637,48.7661 L1014.7157,48.8181 C1014.2827,52.0321 1014.9117,55.5601 1015.7117,58.6421 C1016.6907,62.4171 1018.1447,66.6191 1020.8637,69.5091 C1023.3517,72.1561 1026.7447,73.7801 1030.1997,74.7841 C1030.2427,74.7971 1030.2857,74.8081 1030.3287,74.8211 C1036.6357,76.6231 1042.5527,70.6681 1040.7797,64.3531 C1040.7677,64.3141 1040.7567,64.2761 1040.7457,64.2381 C1039.7427,60.7841 1038.1177,57.3891 1035.4717,54.9011" id="Fill-98" fill="#FFFFFF"></path>
            <path d="M1035.4717,54.9011 C1032.5807,52.1821 1028.3787,50.7291 1024.6037,49.7501 C1021.5227,48.9501 1017.9937,48.3211 1014.7807,48.7551 L1014.7277,48.7021 C1014.7257,48.7211 1014.7247,48.7411 1014.7217,48.7601 C1014.7027,48.7631 1014.6837,48.7631 1014.6637,48.7661 L1014.7157,48.8181 C1014.2827,52.0321 1014.9117,55.5601 1015.7117,58.6421 C1016.6907,62.4171 1018.1447,66.6191 1020.8637,69.5091 C1023.3517,72.1561 1026.7447,73.7801 1030.1997,74.7841 C1030.2427,74.7971 1030.2857,74.8081 1030.3287,74.8211 C1036.6357,76.6231 1042.5527,70.6681 1040.7797,64.3531 C1040.7677,64.3141 1040.7567,64.2761 1040.7457,64.2381 C1039.7427,60.7841 1038.1177,57.3891 1035.4717,54.9011 Z" id="Stroke-100" stroke="#FF3131" stroke-width="2" stroke-linecap="round" stroke-linejoin="round"></path>
            <path d="M1023.0186,44.7917 C1025.8176,47.5907 1025.3406,52.6047 1021.9546,55.9927 C1018.5676,59.3797 1013.5526,59.8557 1010.7536,57.0577 C1007.9556,54.2587 1008.4316,49.2437 1011.8186,45.8567 C1015.2056,42.4697 1020.2196,41.9927 1023.0186,44.7917" id="Fill-102" fill="#FFFFFF"></path>
            <path d="M1023.0186,44.7917 C1025.8176,47.5907 1025.3406,52.6047 1021.9546,55.9927 C1018.5676,59.3797 1013.5526,59.8557 1010.7536,57.0577 C1007.9556,54.2587 1008.4316,49.2437 1011.8186,45.8567 C1015.2056,42.4697 1020.2196,41.9927 1023.0186,44.7917 Z" id="Stroke-104" stroke="#FF3131" stroke-width="2" stroke-linecap="round"></path>
            <path d="M1027.5938,72.4705 L1038.4108,61.6535" id="Stroke-106" stroke="#FF3131" stroke-width="2" stroke-linecap="round" stroke-linejoin="round"></path>
            <path d="M1020.748,66.9031 L1032.811,54.8401" id="Stroke-108" stroke="#FF3131" stroke-width="2" stroke-linecap="round" stroke-linejoin="round"></path>
            <g id="Group-113" transform="translate(1002.000000, 45.000000)">
                <path d="M8.2139,2.4617 C6.6449,0.3637 3.8109,-0.6193 0.8899,0.4237" id="Fill-110" fill="#FFFFFF"></path>
                <path d="M8.2139,2.4617 C6.6449,0.3637 3.8109,-0.6193 0.8899,0.4237" id="Stroke-112" stroke="#FF3131" stroke-width="2" stroke-linecap="round"></path>
            </g>
            <g id="Group-117" transform="translate(1010.000000, 36.000000)">
                <path d="M3.3701,8.3054 C1.2721,6.7374 0.2891,3.9024 1.3311,0.9824" id="Fill-114" fill="#FFFFFF"></path>
                <path d="M3.3701,8.3054 C1.2721,6.7374 0.2891,3.9024 1.3311,0.9824" id="Stroke-116" stroke="#FF3131" stroke-width="2" stroke-linecap="round"></path>
            </g>
            <g id="Group-121" transform="translate(1033.000000, 76.000000)">
                <path d="M1.6279,5.1267 C0.3169,4.1477 -0.2971,2.3767 0.3549,0.5527" id="Fill-118" fill="#FFFFFF"></path>
                <path d="M1.6279,5.1267 C0.3169,4.1477 -0.2971,2.3767 0.3549,0.5527" id="Stroke-120" stroke="#FF3131" stroke-width="2" stroke-linecap="round"></path>
            </g>
            <g id="Group-125" transform="translate(1042.000000, 67.000000)">
                <path d="M5.0674,1.6863 C4.0884,0.3763 2.3174,-0.2377 0.4934,0.4133" id="Fill-122" fill="#FFFFFF"></path>
                <path d="M5.0674,1.6863 C4.0884,0.3763 2.3174,-0.2377 0.4934,0.4133" id="Stroke-124" stroke="#FF3131" stroke-width="2" stroke-linecap="round"></path>
            </g>
            <g id="Group-129" transform="translate(1028.000000, 45.000000)">
                <path d="M0.4854,0.0964 C1.7954,1.0754 2.4094,2.8464 1.7574,4.6704" id="Fill-126" fill="#FFFFFF"></path>
                <path d="M0.4854,0.0964 C1.7954,1.0754 2.4094,2.8464 1.7574,4.6704" id="Stroke-128" stroke="#FF3131" stroke-width="2" stroke-linecap="round"></path>
            </g>
            <g id="Group-133" transform="translate(1011.000000, 62.000000)">
                <path d="M0.0488,0.533 C1.0278,1.843 2.7988,2.457 4.6228,1.806" id="Fill-130" fill="#FFFFFF"></path>
                <path d="M0.0488,0.533 C1.0278,1.843 2.7988,2.457 4.6228,1.806" id="Stroke-132" stroke="#FF3131" stroke-width="2" stroke-linecap="round"></path>
            </g>
            <path d="M1040.9512,57.2146 C1040.0362,57.2146 1039.0492,57.1706 1037.9312,57.0776 C1035.0642,56.8416 1032.7972,56.3536 1031.0302,55.5896 C1031.5372,53.7316 1032.5782,51.6386 1034.1922,49.2316 C1035.6572,47.0446 1037.9392,43.9636 1040.8352,42.4536 C1042.7452,41.4566 1045.0902,40.9516 1047.8042,40.9516 C1048.2222,40.9516 1048.6402,40.9636 1049.0562,40.9856 C1051.3102,41.1256 1053.1782,42.3916 1054.1392,44.3766 C1055.1092,46.3776 1054.9432,48.6466 1053.6962,50.4446 L1053.6182,50.5556 C1051.7172,53.2216 1049.6042,55.0856 1047.3402,56.0966 C1045.6522,56.8496 1043.5622,57.2146 1040.9512,57.2146" id="Fill-134" fill="#FFFFFF"></path>
            <path d="M1047.8037,39.9519 C1045.2447,39.9519 1042.6537,40.3769 1040.3727,41.5669 C1037.4547,43.0889 1035.1637,45.9839 1033.3617,48.6749 C1031.8887,50.8699 1030.4257,53.4639 1029.8787,56.0999 L1029.8717,56.1489 L1029.9107,56.1689 C1032.2997,57.3869 1035.2257,57.8579 1037.8497,58.0749 C1038.8517,58.1569 1039.8967,58.2149 1040.9527,58.2149 C1043.2897,58.2149 1045.6787,57.9319 1047.7467,57.0099 C1050.4967,55.7829 1052.6997,53.5669 1054.4327,51.1359 C1054.4607,51.0969 1054.4907,51.0559 1054.5187,51.0149 C1057.6057,46.5619 1054.6157,40.3289 1049.2087,39.9929 C1049.1747,39.9909 1049.1417,39.9889 1049.1097,39.9869 C1048.6757,39.9639 1048.2407,39.9519 1047.8037,39.9519 M1047.8037,41.9519 C1048.1937,41.9519 1048.5967,41.9629 1049.0027,41.9839 C1049.0087,41.9849 1049.0777,41.9889 1049.0837,41.9889 C1050.8837,42.0999 1052.4377,43.1569 1053.2407,44.8129 C1054.0497,46.4849 1053.9127,48.3769 1052.8727,49.8769 L1052.8047,49.9739 C1051.0077,52.4939 1049.0327,54.2469 1046.9327,55.1819 C1045.3757,55.8779 1043.4207,56.2149 1040.9527,56.2149 C1040.0667,56.2149 1039.1047,56.1709 1038.0147,56.0809 C1035.6967,55.8899 1033.7977,55.5329 1032.2637,54.9969 C1032.8067,53.4529 1033.7177,51.7329 1035.0227,49.7879 C1036.4267,47.6919 1038.6067,44.7449 1041.2977,43.3399 C1043.0637,42.4189 1045.2517,41.9519 1047.8037,41.9519" id="Fill-136" fill="#FF3131"></path>
            <path d="M1013.1553,88.6736 C1010.3413,88.6736 1007.2993,86.5726 1007.0803,83.0576 C1006.9013,79.7126 1007.3953,76.9456 1008.5433,74.7466 C1010.0533,71.8496 1013.1343,69.5676 1015.3203,68.1036 C1017.7213,66.4926 1019.8103,65.4526 1021.6763,64.9416 C1022.4503,66.7456 1022.9323,68.9996 1023.1673,71.8426 C1023.3833,74.4536 1023.5143,78.2706 1022.1853,81.2506 C1021.1753,83.5156 1019.3103,85.6276 1016.6443,87.5286 L1016.5353,87.6066 C1015.5283,88.3056 1014.3603,88.6736 1013.1563,88.6736 L1013.1553,88.6736 Z" id="Fill-138" fill="#FFFFFF"></path>
            <path d="M1022.2393,63.782 L1022.1893,63.79 C1019.5523,64.337 1016.9603,65.8 1014.7633,67.272 C1012.0733,69.075 1009.1773,71.366 1007.6563,74.284 C1006.2633,76.954 1005.9183,80.049 1006.0763,83.02 L1006.0823,83.12 C1006.3253,87.028 1009.6503,89.674 1013.1553,89.674 C1014.5003,89.674 1015.8693,89.285 1017.1033,88.429 C1017.1443,88.401 1017.1853,88.372 1017.2243,88.344 C1019.6573,86.61 1021.8723,84.407 1023.0983,81.658 C1024.4383,78.654 1024.4283,74.975 1024.1643,71.761 C1023.9473,69.136 1023.4753,66.21 1022.2583,63.823 L1022.2393,63.782 Z M1021.0863,66.175 C1021.6223,67.708 1021.9793,69.606 1022.1713,71.925 C1022.3773,74.427 1022.5083,78.073 1021.2723,80.843 C1020.3363,82.943 1018.5833,84.919 1016.0643,86.716 L1015.9643,86.786 C1015.1263,87.366 1014.1553,87.674 1013.1553,87.674 C1010.8023,87.674 1008.2603,85.924 1008.0783,82.991 L1008.0733,82.913 C1007.9103,79.839 1008.3663,77.247 1009.4293,75.209 C1010.8343,72.516 1013.7823,70.338 1015.8773,68.932 C1017.8233,67.629 1019.5423,66.718 1021.0863,66.175 Z" id="Fill-140" fill="#FF3131"></path>
            <path d="M943.5479,126.2712 L940.8279,126.2712 L940.8279,118.2292 C940.8279,110.3522 947.2139,103.9662 955.0919,103.9662 L955.0919,114.7282 C955.0919,121.1032 949.9239,126.2712 943.5479,126.2712 Z" id="Stroke-142" stroke="#FF3131" stroke-width="2" stroke-linecap="round" stroke-linejoin="round"></path>
            <path d="M942.3105,111.9216 C939.9765,107.2236 935.1295,103.9936 929.5295,103.9936 L929.5295,114.1856 C929.5295,120.6016 934.5175,125.8526 940.8285,126.2716" id="Stroke-144" stroke="#FF3131" stroke-width="2" stroke-linecap="round" stroke-linejoin="round"></path>
            <path d="M942.3027,111.908 C944.0047,108.471 947.0517,105.821 950.7547,104.639 C949.3077,100.224 946.2667,96.53 942.3107,94.241 C938.3457,96.534 935.3017,100.238 933.8577,104.665 C937.5537,105.842 940.5967,108.483 942.3027,111.908 Z" id="Stroke-146" stroke="#FF3131" stroke-width="2" stroke-linecap="round" stroke-linejoin="round"></path>
            <path d="M940.8281,146.2751 C940.8291,141.5871 944.6301,137.7841 949.3181,137.7831 L957.2311,137.7811 C957.2301,143.5751 952.5341,148.2731 946.7421,148.2741 L940.8281,148.2761 L940.8281,146.2751 Z" id="Stroke-148" stroke="#FF3131" stroke-width="2" stroke-linecap="round" stroke-linejoin="round"></path>
            <path d="M940.8281,153.9197 L940.8281,155.9207 L934.9151,155.9187 C929.1221,155.9177 924.4261,151.2197 924.4251,145.4257 L932.3391,145.4277 C937.0261,145.4287 940.8271,149.2317 940.8281,153.9197 Z" id="Stroke-150" stroke="#FF3131" stroke-width="2" stroke-linecap="round" stroke-linejoin="round"></path>
            <path d="M940.8281,126.2712 L940.8281,170.4172" id="Stroke-152" stroke="#FF3131" stroke-width="2" stroke-linecap="round" stroke-linejoin="round"></path>
            <path d="M1034.6797,153.2869 L1031.9597,153.2869 L1031.9597,145.2449 C1031.9597,137.3679 1038.3447,130.9819 1046.2227,130.9819 L1046.2227,141.7439 C1046.2227,148.1189 1041.0547,153.2869 1034.6797,153.2869 Z" id="Stroke-154" stroke="#FF3131" stroke-width="2" stroke-linecap="round" stroke-linejoin="round"></path>
            <path d="M1033.4414,138.9373 C1031.1084,134.2403 1026.2614,131.0093 1020.6604,131.0093 L1020.6604,141.2013 C1020.6604,147.6173 1025.6494,152.8683 1031.9604,153.2873" id="Stroke-156" stroke="#FF3131" stroke-width="2" stroke-linecap="round" stroke-linejoin="round"></path>
            <path d="M1033.4346,138.9236 C1035.1356,135.4866 1038.1836,132.8366 1041.8856,131.6546 C1040.4386,127.2396 1037.3986,123.5466 1033.4416,121.2566 C1029.4776,123.5506 1026.4326,127.2536 1024.9886,131.6806 C1028.6846,132.8576 1031.7286,135.4986 1033.4346,138.9236 Z" id="Stroke-158" stroke="#FF3131" stroke-width="2" stroke-linecap="round" stroke-linejoin="round"></path>
            <path d="M1031.96,153.2869 L1031.96,184.3989" id="Stroke-160" stroke="#FF3131" stroke-width="2" stroke-linecap="round" stroke-linejoin="round"></path>
            <path d="M923.4658,44.0349 C922.1868,42.7559 920.1128,42.7559 918.8338,44.0349 L918.1118,44.7579 C917.9398,44.9299 917.6598,44.9299 917.4868,44.7579 L916.7768,44.0469 C915.4968,42.7669 913.4238,42.7669 912.1448,44.0469 C910.8648,45.3249 910.8648,47.3989 912.1448,48.6789 L917.4878,54.0209 C917.6598,54.1929 917.9398,54.1929 918.1118,54.0209 L923.4658,48.6669 C924.7448,47.3879 924.7448,45.3129 923.4658,44.0349 Z" id="Stroke-162" stroke="#FF3131" stroke-width="2" stroke-linecap="round" stroke-linejoin="round"></path>
            <path d="M923.4658,44.0349 C922.1868,42.7559 920.1128,42.7559 918.8338,44.0349 L918.1118,44.7579 C917.9398,44.9299 917.6598,44.9299 917.4868,44.7579 L916.7768,44.0469 C915.4968,42.7669 913.4238,42.7669 912.1448,44.0469 C910.8648,45.3249 910.8648,47.3989 912.1448,48.6789 L917.4878,54.0209 C917.6598,54.1929 917.9398,54.1929 918.1118,54.0209 L923.4658,48.6669 C924.7448,47.3879 924.7448,45.3129 923.4658,44.0349 Z" id="Stroke-164" stroke="#FF3131" stroke-width="2" stroke-linecap="round" stroke-linejoin="round"></path>
            <path d="M1021.3018,0.3074 L1021.3018,2.8814" id="Stroke-166" stroke="#FF3131" stroke-width="2" stroke-linecap="round"></path>
            <path d="M1021.3018,8.7429 L1021.3018,11.3169" id="Stroke-168" stroke="#FF3131" stroke-width="2" stroke-linecap="round"></path>
            <path d="M1015.8545,5.8005 L1018.4285,5.8005" id="Stroke-170" stroke="#FF3131" stroke-width="2" stroke-linecap="round"></path>
            <path d="M1024.1289,5.8005 L1026.7029,5.8005" id="Stroke-172" stroke="#FF3131" stroke-width="2" stroke-linecap="round"></path>
            <path d="M988.5576,112.2312 C988.5576,113.8562 987.2416,115.1722 985.6166,115.1722 C983.9916,115.1722 982.6736,113.8562 982.6736,112.2312 C982.6736,110.6062 983.9916,109.2892 985.6166,109.2892 C987.2416,109.2892 988.5576,110.6062 988.5576,112.2312 Z" id="Stroke-174" stroke="#FF3131" stroke-width="2"></path>
            <path d="M1051.9424,18.8103 C1051.9424,20.4353 1050.6254,21.7523 1049.0004,21.7523 C1047.3754,21.7523 1046.0574,20.4353 1046.0574,18.8103 C1046.0574,17.1853 1047.3754,15.8683 1049.0004,15.8683 C1050.6254,15.8683 1051.9424,17.1853 1051.9424,18.8103" id="Fill-176" fill="#FF3131"></path>
            <path d="M948.1396,52.3005 C946.4886,50.6485 943.8096,50.6485 942.1576,52.3005 L941.2236,53.2345 C941.0006,53.4565 940.6406,53.4565 940.4176,53.2345 L939.4986,52.3165 C937.8476,50.6635 935.1686,50.6635 933.5166,52.3165 C931.8646,53.9675 931.8646,56.6465 933.5166,58.2985 L940.4176,65.2005 C940.6406,65.4235 941.0016,65.4235 941.2246,65.2005 L948.1396,58.2835 C949.7916,56.6315 949.7916,53.9525 948.1396,52.3005" id="Fill-178" fill="#FFE3E3"></path>
            <path d="M948.1396,52.3005 C946.4886,50.6485 943.8096,50.6485 942.1576,52.3005 L941.2236,53.2345 C941.0006,53.4565 940.6406,53.4565 940.4176,53.2345 L939.4986,52.3165 C937.8476,50.6635 935.1686,50.6635 933.5166,52.3165 C931.8646,53.9675 931.8646,56.6465 933.5166,58.2985 L940.4176,65.2005 C940.6406,65.4235 941.0016,65.4235 941.2246,65.2005 L948.1396,58.2835 C949.7916,56.6315 949.7916,53.9525 948.1396,52.3005" id="Fill-180" fill="#FFE3E3"></path>
            <path d="M1046.2227,78.8318 C1046.7677,79.6778 1047.3347,80.5018 1047.9247,81.3038" id="Stroke-182" stroke="#FFE3E3" stroke-width="2"></path>
            <path d="M1056.1865,90.0271 C1071.1985,102.4411 1093.0405,105.9521 1111.6705,100.2331 C1135.8465,92.8111 1160.0415,69.6401 1164.1655,43.9751 C1166.1045,31.9141 1161.7315,19.7271 1149.8315,15.0021 C1139.4785,10.8901 1127.8475,15.5051 1126.4275,27.3981 C1124.7265,41.6441 1136.7685,51.4121 1148.0105,57.4251 C1160.9975,64.3731 1175.0415,69.5351 1189.4415,72.6221 C1216.9105,78.5101 1246.3635,76.4211 1271.3735,62.9841 C1271.4295,62.9541 1271.4855,62.9231 1271.5415,62.8931" id="Stroke-184" stroke="#FFE3E3" stroke-width="2" stroke-dasharray="6.021,12.043"></path>
            <path d="M1276.7646,59.8796 C1277.6166,59.3556 1278.4596,58.8176 1279.2956,58.2706" id="Stroke-186" stroke="#FFE3E3" stroke-width="2"></path>
        </g>
    </g>
</svg>