<?xml version="1.0" encoding="UTF-8"?>
<svg width="149px" height="149px" viewBox="0 0 149 149" version="1.1" xmlns="http://www.w3.org/2000/svg" xmlns:xlink="http://www.w3.org/1999/xlink">
    <!-- Generator: Sketch 50.2 (55047) - http://www.bohemiancoding.com/sketch -->
    <title>Group 421</title>
    <desc>Created with Sketch.</desc>
    <defs></defs>
    <g id="Page-1" stroke="none" stroke-width="1" fill="none" fill-rule="evenodd">
        <g id="Group-421">
            <path d="M22.4966,70.7529 C22.2176,71.4489 21.8726,72.0039 21.4636,72.4159 C21.3306,72.5619 21.1936,72.6599 21.0556,72.7129 C20.9166,72.7669 20.7486,72.7809 20.5506,72.7569 C20.2906,72.7259 20.0706,72.6159 19.8926,72.4279 C19.7146,72.2399 19.6386,72.0399 19.6636,71.8279 C19.6786,71.7119 19.7096,71.6009 19.7596,71.4929 C19.8096,71.3869 19.8916,71.2599 20.0046,71.1119 C20.3406,70.6909 20.6016,70.2559 20.7876,69.8049 C20.9756,69.3559 21.1006,68.8499 21.1696,68.2879 C21.2536,67.5899 21.2036,67.0409 21.0186,66.6439 C20.8346,66.2449 20.5286,66.0209 20.1016,65.9689 C19.7786,65.9299 19.4976,66.0699 19.2586,66.3909 C19.0186,66.7109 18.7576,67.2989 18.4746,68.1559 C18.1576,69.1169 17.8226,69.8739 17.4706,70.4279 C17.1186,70.9819 16.7176,71.3679 16.2676,71.5879 C15.8186,71.8079 15.2976,71.8809 14.7036,71.8099 C14.0476,71.7309 13.4786,71.4659 12.9996,71.0159 C12.5196,70.5659 12.1736,69.9819 11.9586,69.2629 C11.7446,68.5439 11.6886,67.7559 11.7926,66.8989 C11.9746,65.3959 12.4936,64.2019 13.3506,63.3169 C13.4946,63.1729 13.6366,63.0749 13.7746,63.0219 C13.9136,62.9689 14.0756,62.9529 14.2636,62.9759 C14.5236,63.0079 14.7436,63.1169 14.9216,63.3059 C15.1006,63.4929 15.1766,63.6929 15.1496,63.9039 C15.1366,64.0219 15.1076,64.1279 15.0636,64.2249 C15.0206,64.3209 14.9356,64.4529 14.8096,64.6209 C14.4866,65.0229 14.2356,65.3979 14.0566,65.7459 C13.8766,66.0949 13.7526,66.5499 13.6846,67.1109 C13.6066,67.7569 13.6686,68.2799 13.8686,68.6799 C14.0686,69.0799 14.3826,69.3059 14.8096,69.3569 C15.0596,69.3879 15.2736,69.3409 15.4526,69.2179 C15.6316,69.0939 15.8036,68.8729 15.9686,68.5549 C16.1336,68.2359 16.3206,67.7779 16.5306,67.1809 C17.0176,65.7789 17.5436,64.7919 18.1086,64.2219 C18.6746,63.6509 19.3846,63.4169 20.2386,63.5209 C20.9056,63.6009 21.4716,63.8589 21.9356,64.2969 C22.4016,64.7339 22.7336,65.3119 22.9326,66.0279 C23.1316,66.7449 23.1766,67.5539 23.0676,68.4529 C22.9676,69.2899 22.7766,70.0559 22.4966,70.7529" id="Fill-333" fill="#FFFFFF"></path>
            <path d="M20.7173,53.0586 C21.1723,51.8976 20.9073,51.1226 19.9203,50.7366 C18.9243,50.3446 18.1983,50.7306 17.7423,51.8916 L16.8773,54.0946 L19.8523,55.2626 L20.7173,53.0586 Z M24.4553,59.3886 C24.1683,59.5166 23.8493,59.5116 23.4973,59.3736 L15.2913,56.1536 C14.9493,56.0186 14.7233,55.8216 14.6123,55.5596 C14.5003,55.2976 14.5123,54.9946 14.6493,54.6466 L16.1153,50.9096 C16.5643,49.7676 17.1963,48.9906 18.0123,48.5786 C18.8273,48.1646 19.7433,48.1586 20.7593,48.5566 C21.7763,48.9546 22.4423,49.5836 22.7593,50.4416 C23.0763,51.2986 23.0113,52.2986 22.5633,53.4396 L21.5803,55.9416 L24.4083,57.0506 C24.7603,57.1896 24.9983,57.4026 25.1213,57.6916 C25.2443,57.9806 25.2363,58.3036 25.0963,58.6616 C24.9553,59.0186 24.7413,59.2606 24.4553,59.3886 Z" id="Fill-335" fill="#FFFFFF"></path>
            <path d="M28.3628,38.8262 C28.3528,38.4232 28.1368,38.0652 27.7148,37.7552 C27.2838,37.4372 26.8758,37.3372 26.4918,37.4512 C26.1078,37.5662 25.7048,37.9112 25.2808,38.4872 L23.8698,40.4072 L26.3308,42.2162 L27.7418,40.2962 C28.1648,39.7202 28.3718,39.2302 28.3628,38.8262 M34.7688,39.6652 C35.0068,39.8392 35.1298,40.0792 35.1388,40.3842 C35.1498,40.6892 35.0598,40.9712 34.8708,41.2282 C34.7508,41.3912 34.5948,41.5222 34.4058,41.6212 C34.2168,41.7202 34.0038,41.7622 33.7658,41.7472 L30.0298,41.6212 C29.7028,41.6052 29.4308,41.6432 29.2138,41.7352 C28.9968,41.8272 28.7968,41.9972 28.6128,42.2462 L27.8448,43.2902 L30.4078,45.1742 C30.7128,45.3972 30.8878,45.6622 30.9358,45.9692 C30.9838,46.2752 30.8978,46.5792 30.6768,46.8802 C30.4498,47.1892 30.1808,47.3692 29.8708,47.4192 C29.5598,47.4692 29.2538,47.3822 28.9488,47.1582 L21.8458,41.9372 C21.5508,41.7202 21.3828,41.4712 21.3418,41.1882 C21.3008,40.9082 21.3908,40.6162 21.6118,40.3152 L23.9898,37.0812 C24.7728,36.0152 25.5948,35.3802 26.4578,35.1732 C27.3188,34.9662 28.1858,35.1822 29.0558,35.8232 C29.7408,36.3262 30.1698,36.9392 30.3418,37.6612 C30.5138,38.3842 30.4138,39.1502 30.0398,39.9602 C30.2798,39.7392 30.5488,39.5832 30.8438,39.4892 C31.1408,39.3962 31.4978,39.3582 31.9158,39.3742 L34.0818,39.4582 C34.3628,39.4662 34.5918,39.5342 34.7688,39.6652" id="Fill-337" fill="#FFFFFF"></path>
            <path d="M38.519,36.8428 C38.236,36.8188 37.978,36.6638 37.744,36.3808 L32.143,29.5938 C31.91,29.3108 31.807,29.0288 31.836,28.7448 C31.866,28.4628 32.024,28.2018 32.312,27.9648 L36.679,24.3608 C37.288,23.8588 37.792,23.8508 38.193,24.3358 C38.601,24.8288 38.5,25.3268 37.892,25.8298 L34.499,28.6288 L36.153,30.6328 L39.298,28.0358 C39.907,27.5338 40.415,27.5298 40.822,28.0238 C41.223,28.5098 41.119,29.0028 40.51,29.5058 L37.365,32.1018 L39.138,34.2498 L42.531,31.4508 C43.139,30.9478 43.647,30.9448 44.054,31.4378 C44.456,31.9238 44.351,32.4178 43.743,32.9198 L39.375,36.5238 C39.088,36.7618 38.802,36.8678 38.519,36.8428" id="Fill-339" fill="#FFFFFF"></path>
            <path d="M48.7495,24.8975 L52.1265,23.3205 L48.7135,20.3975 L48.7495,24.8975 Z M57.0385,24.6925 C57.1625,24.9595 57.1595,25.2355 57.0285,25.5215 C56.8975,25.8085 56.6925,26.0175 56.4125,26.1485 C56.2285,26.2345 56.0315,26.2655 55.8205,26.2425 C55.6095,26.2195 55.4145,26.1275 55.2335,25.9685 L53.6805,24.6445 L48.7675,26.9385 L48.7845,28.9805 C48.7915,29.2205 48.7375,29.4275 48.6255,29.6025 C48.5125,29.7765 48.3585,29.9095 48.1665,29.9995 C47.8865,30.1295 47.5915,30.1545 47.2825,30.0725 C46.9745,29.9915 46.7575,29.8175 46.6335,29.5505 C46.5705,29.4185 46.5385,29.2485 46.5355,29.0405 L46.6725,19.1265 C46.6725,18.8485 46.7505,18.6005 46.9075,18.3825 C47.0645,18.1645 47.2645,17.9995 47.5055,17.8855 C47.7575,17.7685 48.0185,17.7225 48.2875,17.7475 C48.5585,17.7715 48.8025,17.8655 49.0205,18.0305 L56.7095,24.2905 C56.8665,24.4245 56.9765,24.5595 57.0385,24.6925 Z" id="Fill-341" fill="#FFFFFF"></path>
            <path d="M64.9565,21.9902 C67.3275,21.6222 68.3295,20.2612 67.9645,17.9072 C67.6015,15.5632 66.2335,14.5762 63.8625,14.9432 L62.1715,15.2062 L63.2655,22.2522 L64.9565,21.9902 Z M61.3575,24.2532 C61.1275,24.0872 60.9835,23.8222 60.9275,23.4592 L59.5785,14.7642 C59.5215,14.4012 59.5785,14.1062 59.7485,13.8782 C59.9175,13.6502 60.1865,13.5072 60.5565,13.4502 L63.7325,12.9572 C64.9435,12.7682 66.0205,12.8242 66.9635,13.1242 C67.9055,13.4242 68.6725,13.9482 69.2635,14.6952 C69.8535,15.4422 70.2375,16.3862 70.4145,17.5272 C70.5915,18.6682 70.5155,19.6852 70.1845,20.5812 C69.8535,21.4762 69.2855,22.2102 68.4775,22.7812 C67.6715,23.3522 66.6565,23.7332 65.4345,23.9232 L62.2575,24.4162 C61.8895,24.4722 61.5895,24.4192 61.3575,24.2532 Z" id="Fill-343" fill="#FFFFFF"></path>
            <path d="M76.0552,23.0176 C75.8442,22.7846 75.7492,22.4796 75.7712,22.1026 L76.2742,13.2866 C76.2942,12.9186 76.4232,12.6316 76.6592,12.4246 C76.8952,12.2176 77.2052,12.1246 77.5882,12.1466 C77.9712,12.1686 78.2692,12.2956 78.4802,12.5296 C78.6912,12.7616 78.7852,13.0616 78.7652,13.4276 L78.2622,22.2446 C78.2412,22.6216 78.1122,22.9136 77.8752,23.1216 C77.6392,23.3286 77.3292,23.4206 76.9472,23.3996 C76.5632,23.3766 76.2662,23.2496 76.0552,23.0176" id="Fill-345" fill="#FFFFFF"></path>
            <path d="M94.9995,15.8447 C95.1495,16.1207 95.1775,16.4307 95.0825,16.7747 L92.7285,25.2857 C92.6315,25.6397 92.4465,25.8967 92.1765,26.0557 C91.9055,26.2147 91.6015,26.2477 91.2615,26.1547 C90.8915,26.0517 90.6295,25.8377 90.4765,25.5127 L87.1105,17.5757 L85.5295,23.2957 C85.4325,23.6497 85.2535,23.9077 84.9925,24.0697 C84.7315,24.2317 84.4325,24.2657 84.0935,24.1717 C83.7535,24.0777 83.5115,23.8947 83.3655,23.6197 C83.2205,23.3457 83.1965,23.0317 83.2945,22.6777 L85.6475,14.1657 C85.7425,13.8227 85.9255,13.5717 86.1965,13.4107 C86.4675,13.2517 86.7715,13.2197 87.1115,13.3137 C87.4915,13.4187 87.7485,13.6307 87.8815,13.9507 L91.2585,21.8417 L92.8315,16.1527 C92.9265,15.8087 93.1065,15.5567 93.3725,15.3957 C93.6385,15.2357 93.9355,15.1997 94.2645,15.2907 C94.6035,15.3847 94.8485,15.5697 94.9995,15.8447" id="Fill-347" fill="#FFFFFF"></path>
            <path d="M107.7681,28.1279 C107.8331,28.3579 107.7921,28.5949 107.6451,28.8359 L106.0441,31.4559 C105.8261,31.8149 105.6261,32.0739 105.4481,32.2339 C105.2681,32.3959 105.0701,32.4899 104.8531,32.5179 C104.6361,32.5449 104.3581,32.5099 104.0171,32.4129 C103.5971,32.3039 103.1371,32.1399 102.6401,31.9219 C102.1421,31.7029 101.6881,31.4699 101.2791,31.2199 C100.2591,30.5969 99.4961,29.8629 98.9881,29.0179 C98.4791,28.1729 98.2471,27.2629 98.2931,26.2879 C98.3381,25.3139 98.6671,24.3249 99.2811,23.3219 C99.8821,22.3369 100.6031,21.6009 101.4451,21.1119 C102.2871,20.6239 103.1971,20.4079 104.1741,20.4639 C105.1521,20.5209 106.1321,20.8489 107.1151,21.4489 C108.3791,22.2209 109.2301,23.1829 109.6641,24.3329 C109.7351,24.5239 109.7651,24.6899 109.7531,24.8309 C109.7431,24.9719 109.6881,25.1229 109.5891,25.2839 C109.4471,25.5169 109.2591,25.6759 109.0271,25.7609 C108.7931,25.8459 108.5851,25.8329 108.4041,25.7219 C108.2861,25.6489 108.1891,25.5659 108.1161,25.4719 C108.0421,25.3779 107.9611,25.2489 107.8741,25.0849 C107.6341,24.6179 107.3851,24.2389 107.1261,23.9459 C106.8691,23.6529 106.5481,23.3899 106.1661,23.1559 C104.3101,22.0229 102.7331,22.5169 101.4371,24.6399 C100.7701,25.7319 100.5131,26.6939 100.6671,27.5259 C100.8221,28.3579 101.3851,29.0709 102.3591,29.6659 C102.8861,29.9879 103.4511,30.2399 104.0521,30.4229 L105.3241,28.3409 L104.0681,27.5739 C103.8031,27.4129 103.6371,27.2259 103.5681,27.0109 C103.4991,26.7969 103.5361,26.5729 103.6781,26.3399 C103.8201,26.1069 104.0021,25.9729 104.2251,25.9369 C104.4471,25.8989 104.6901,25.9619 104.9541,26.1229 L107.2881,27.5489 C107.5421,27.7039 107.7031,27.8979 107.7681,28.1279" id="Fill-349" fill="#FFFFFF"></path>
            <path d="M115.3374,43.6484 C115.3814,43.3334 115.5524,43.0684 115.8494,42.8524 L122.3024,38.1834 L120.7824,36.0844 C120.3204,35.4454 120.3604,34.9284 120.9054,34.5354 C121.4414,34.1474 121.9404,34.2734 122.4024,34.9124 L126.9034,41.1314 C127.3654,41.7714 127.3294,42.2854 126.7934,42.6724 C126.2494,43.0664 125.7464,42.9434 125.2834,42.3034 L123.7654,40.2054 L117.3124,44.8744 C117.0144,45.0894 116.7114,45.1704 116.4004,45.1194 C116.0914,45.0664 115.8234,44.8844 115.5994,44.5744 C115.3804,44.2714 115.2924,43.9624 115.3374,43.6484" id="Fill-351" fill="#FFFFFF"></path>
            <path d="M133.8813,56.9648 C133.7543,57.2528 133.5193,57.4618 133.1763,57.5918 L124.9193,60.7238 C124.5753,60.8548 124.2593,60.8548 123.9693,60.7258 C123.6783,60.5958 123.4673,60.3568 123.3343,60.0078 C123.2023,59.6588 123.2003,59.3428 123.3283,59.0608 C123.4573,58.7778 123.6983,58.5688 124.0513,58.4358 L127.3483,57.1858 L125.5043,52.3248 L122.2073,53.5748 C121.8643,53.7058 121.5473,53.7058 121.2573,53.5768 C120.9663,53.4468 120.7573,53.2128 120.6283,52.8738 C120.4963,52.5258 120.4933,52.2068 120.6203,51.9198 C120.7463,51.6318 120.9863,51.4218 121.3403,51.2868 L129.5963,48.1548 C129.9403,48.0258 130.2543,48.0258 130.5393,48.1568 C130.8253,48.2878 131.0343,48.5278 131.1663,48.8768 C131.2993,49.2268 131.3013,49.5418 131.1723,49.8238 C131.0433,50.1068 130.8083,50.3138 130.4643,50.4438 L127.3293,51.6328 L129.1733,56.4928 L132.3083,55.3038 C132.6523,55.1738 132.9653,55.1718 133.2483,55.2978 C133.5313,55.4238 133.7393,55.6608 133.8723,56.0108 C134.0043,56.3598 134.0073,56.6778 133.8813,56.9648" id="Fill-353" fill="#FFFFFF"></path>
            <path d="M125.0796,65.9688 C125.2576,65.7458 125.5286,65.6158 125.8936,65.5788 L134.6466,64.6758 C135.0126,64.6388 135.3046,64.7098 135.5236,64.8908 C135.7426,65.0728 135.8716,65.3478 135.9096,65.7198 L136.4906,71.3518 C136.5716,72.1368 136.2996,72.5618 135.6726,72.6258 C135.0356,72.6918 134.6776,72.3318 134.5966,71.5468 L134.1446,67.1718 L131.5606,67.4388 L131.9796,71.4948 C132.0606,72.2808 131.7826,72.7048 131.1456,72.7718 C130.5196,72.8358 130.1666,72.4758 130.0856,71.6908 L129.6666,67.6338 L126.8946,67.9198 L127.3466,72.2948 C127.4276,73.0798 127.1486,73.5048 126.5136,73.5708 C125.8866,73.6358 125.5326,73.2758 125.4516,72.4898 L124.8706,66.8588 C124.8326,66.4868 124.9016,66.1908 125.0796,65.9688" id="Fill-355" fill="#FFFFFF"></path>
            <path d="M34.2368,110.1445 C34.2018,110.4565 34.0398,110.7265 33.7508,110.9535 L26.8038,116.4065 C26.5148,116.6325 26.2128,116.7275 25.8968,116.6905 C25.5818,116.6545 25.3078,116.4885 25.0778,116.1955 C24.8468,115.9015 24.7518,115.6005 24.7898,115.2925 C24.8288,114.9845 24.9958,114.7135 25.2938,114.4805 L28.0668,112.3035 L24.8568,108.2145 L22.0838,110.3915 C21.7948,110.6195 21.4928,110.7135 21.1758,110.6765 C20.8608,110.6405 20.5908,110.4785 20.3678,110.1945 C20.1358,109.9005 20.0398,109.5975 20.0738,109.2855 C20.1088,108.9725 20.2748,108.7005 20.5728,108.4665 L27.5188,103.0145 C27.8078,102.7885 28.1078,102.6945 28.4198,102.7345 C28.7308,102.7745 29.0028,102.9415 29.2328,103.2355 C29.4638,103.5285 29.5588,103.8295 29.5208,104.1375 C29.4818,104.4455 29.3188,104.7125 29.0298,104.9395 L26.3918,107.0095 L29.6018,111.0985 L32.2398,109.0285 C32.5278,108.8015 32.8268,108.7065 33.1348,108.7425 C33.4438,108.7785 33.7128,108.9425 33.9438,109.2365 C34.1738,109.5305 34.2708,109.8325 34.2368,110.1445" id="Fill-357" fill="#FFFFFF"></path>
            <path d="M36.1353,120.3496 L39.1563,122.5326 L40.0483,118.1276 L36.1353,120.3496 Z M40.3493,127.4906 C40.1773,127.7286 39.9343,127.8606 39.6193,127.8856 C39.3053,127.9116 39.0233,127.8336 38.7723,127.6526 C38.6083,127.5346 38.4853,127.3766 38.4033,127.1816 C38.3203,126.9866 38.3043,126.7706 38.3563,126.5366 L38.7563,124.5346 L34.3613,121.3596 L32.5853,122.3686 C32.3793,122.4916 32.1723,122.5446 31.9643,122.5316 C31.7573,122.5176 31.5683,122.4486 31.3953,122.3246 C31.1443,122.1426 30.9793,121.8976 30.9003,121.5876 C30.8213,121.2786 30.8673,121.0046 31.0393,120.7666 C31.1253,120.6476 31.2583,120.5366 31.4393,120.4326 L40.1653,115.7266 C40.4073,115.5906 40.6623,115.5386 40.9293,115.5706 C41.1963,115.6006 41.4383,115.6946 41.6543,115.8506 C41.8783,116.0126 42.0463,116.2176 42.1563,116.4656 C42.2673,116.7136 42.3033,116.9736 42.2663,117.2446 L40.5403,127.0076 C40.4993,127.2096 40.4353,127.3716 40.3493,127.4906 Z" id="Fill-359" fill="#FFFFFF"></path>
            <path d="M51.9663,127.2334 C53.1263,127.6914 53.9023,127.4284 54.2913,126.4424 C54.6853,125.4474 54.3013,124.7194 53.1413,124.2614 L50.9403,123.3914 L49.7653,126.3634 L51.9663,127.2334 Z M45.6273,130.9564 C45.5003,130.6694 45.5063,130.3494 45.6453,129.9984 L48.8853,121.8004 C49.0203,121.4594 49.2183,121.2324 49.4813,121.1224 C49.7413,121.0104 50.0463,121.0244 50.3943,121.1614 L54.1273,122.6364 C55.2673,123.0874 56.0433,123.7214 56.4533,124.5394 C56.8643,125.3554 56.8693,126.2714 56.4683,127.2864 C56.0673,128.3014 55.4373,128.9664 54.5793,129.2814 C53.7203,129.5964 52.7213,129.5294 51.5803,129.0784 L49.0823,128.0894 L47.9653,130.9154 C47.8263,131.2664 47.6123,131.5044 47.3223,131.6264 C47.0333,131.7494 46.7103,131.7404 46.3543,131.5984 C45.9963,131.4584 45.7543,131.2434 45.6273,130.9564 Z" id="Fill-361" fill="#FFFFFF"></path>
            <path d="M65.4263,130.6777 C66.6603,130.8607 67.3553,130.4277 67.5103,129.3787 C67.6673,128.3207 67.1283,127.6987 65.8943,127.5167 L63.5533,127.1697 L63.0843,130.3307 L65.4263,130.6777 Z M60.1013,135.7447 C59.9113,135.4937 59.8443,135.1827 59.9003,134.8087 L61.1913,126.0887 C61.2443,125.7257 61.3863,125.4597 61.6153,125.2917 C61.8453,125.1247 62.1443,125.0687 62.5143,125.1227 L66.4853,125.7107 C67.6973,125.8897 68.5973,126.3307 69.1843,127.0327 C69.7693,127.7357 69.9833,128.6257 69.8223,129.7047 C69.6623,130.7847 69.2003,131.5757 68.4373,132.0777 C67.6723,132.5797 66.6843,132.7407 65.4713,132.5617 L62.8133,132.1687 L62.3683,135.1737 C62.3133,135.5477 62.1583,135.8267 61.9053,136.0117 C61.6513,136.1977 61.3343,136.2617 60.9543,136.2057 C60.5743,136.1497 60.2903,135.9957 60.1013,135.7447 Z" id="Fill-363" fill="#FFFFFF"></path>
            <path d="M74.8696,137.0498 C74.6406,136.8348 74.5196,136.5388 74.5106,136.1608 L74.2806,127.3338 C74.2706,126.9668 74.3756,126.6698 74.5946,126.4438 C74.8116,126.2178 75.1126,126.0998 75.4966,126.0898 C75.8806,126.0788 76.1866,126.1818 76.4166,126.3968 C76.6456,126.6108 76.7656,126.9018 76.7746,127.2688 L77.0046,136.0968 C77.0146,136.4738 76.9106,136.7768 76.6916,137.0018 C76.4736,137.2288 76.1736,137.3468 75.7896,137.3568 C75.4056,137.3658 75.0986,137.2638 74.8696,137.0498" id="Fill-365" fill="#FFFFFF"></path>
            <path d="M90.5308,124.2129 C90.7928,124.3879 90.9608,124.6499 91.0358,124.9979 L92.8908,133.6309 C92.9688,133.9899 92.9248,134.3039 92.7588,134.5689 C92.5918,134.8369 92.3368,135.0069 91.9928,135.0799 C91.6178,135.1609 91.2858,135.0929 90.9998,134.8749 L84.3418,129.3999 L85.5898,135.2009 C85.6668,135.5609 85.6278,135.8719 85.4708,136.1369 C85.3148,136.4009 85.0648,136.5699 84.7208,136.6439 C84.3778,136.7179 84.0778,136.6669 83.8218,136.4909 C83.5648,136.3159 83.3988,136.0479 83.3218,135.6889 L81.4658,127.0559 C81.3898,126.7069 81.4358,126.3999 81.6018,126.1329 C81.7688,125.8659 82.0238,125.6949 82.3678,125.6219 C82.7538,125.5389 83.0798,125.6089 83.3448,125.8299 L89.9928,131.2599 L88.7528,125.4889 C88.6768,125.1409 88.7198,124.8329 88.8818,124.5669 C89.0428,124.3019 89.2898,124.1339 89.6238,124.0619 C89.9678,123.9879 90.2698,124.0379 90.5308,124.2129" id="Fill-367" fill="#FFFFFF"></path>
            <path d="M99.7515,131.9873 C99.4825,131.8943 99.2705,131.6813 99.1115,131.3503 L95.3275,123.4063 C95.1695,123.0753 95.1395,122.7753 95.2365,122.5083 C95.3335,122.2413 95.5505,122.0273 95.8875,121.8673 L100.9995,119.4313 C101.7115,119.0923 102.2035,119.2073 102.4745,119.7753 C102.7495,120.3533 102.5305,120.8123 101.8185,121.1513 L97.8475,123.0433 L98.9645,125.3873 L102.6475,123.6333 C103.3585,123.2953 103.8535,123.4143 104.1285,123.9913 C104.3985,124.5593 104.1785,125.0133 103.4655,125.3533 L99.7835,127.1073 L100.9815,129.6233 L104.9525,127.7313 C105.6645,127.3913 106.1585,127.5103 106.4345,128.0893 C106.7045,128.6573 106.4835,129.1113 105.7725,129.4503 L100.6595,131.8853 C100.3225,132.0463 100.0205,132.0803 99.7515,131.9873" id="Fill-369" fill="#FFFFFF"></path>
            <path d="M113.0933,124.6191 C112.4043,124.9171 111.7693,125.0681 111.1883,125.0731 C110.9913,125.0821 110.8243,125.0561 110.6893,124.9961 C110.5533,124.9361 110.4233,124.8281 110.3003,124.6721 C110.1373,124.4661 110.0583,124.2341 110.0653,123.9741 C110.0713,123.7161 110.1563,123.5201 110.3233,123.3881 C110.4153,123.3151 110.5173,123.2591 110.6283,123.2181 C110.7393,123.1781 110.8863,123.1441 111.0703,123.1191 C111.6053,123.0571 112.0973,122.9321 112.5463,122.7431 C112.9963,122.5551 113.4423,122.2851 113.8853,121.9341 C114.4373,121.4981 114.7873,121.0731 114.9373,120.6601 C115.0863,120.2481 115.0283,119.8731 114.7613,119.5351 C114.5593,119.2801 114.2603,119.1821 113.8643,119.2411 C113.4693,119.3001 112.8693,119.5341 112.0653,119.9431 C111.1633,120.4021 110.3933,120.7041 109.7523,120.8491 C109.1133,120.9941 108.5563,120.9861 108.0823,120.8261 C107.6093,120.6661 107.1863,120.3511 106.8153,119.8821 C106.4053,119.3631 106.1883,118.7761 106.1633,118.1191 C106.1403,117.4621 106.3053,116.8031 106.6583,116.1411 C107.0123,115.4791 107.5283,114.8811 108.2053,114.3461 C109.3923,113.4051 110.6023,112.9241 111.8333,112.8981 C112.0373,112.8981 112.2063,112.9281 112.3423,112.9881 C112.4783,113.0481 112.6053,113.1511 112.7223,113.3001 C112.8853,113.5061 112.9633,113.7381 112.9573,113.9971 C112.9513,114.2561 112.8643,114.4511 112.6973,114.5841 C112.6063,114.6561 112.5103,114.7121 112.4113,114.7501 C112.3123,114.7881 112.1593,114.8221 111.9513,114.8521 C111.4403,114.9101 110.9973,114.9991 110.6243,115.1211 C110.2513,115.2421 109.8433,115.4781 109.4003,115.8291 C108.8903,116.2321 108.5653,116.6461 108.4253,117.0711 C108.2853,117.4971 108.3503,117.8781 108.6163,118.2151 C108.7733,118.4131 108.9573,118.5301 109.1713,118.5681 C109.3853,118.6071 109.6633,118.5711 110.0043,118.4621 C110.3463,118.3511 110.8023,118.1591 111.3713,117.8821 C112.7033,117.2281 113.7723,116.8981 114.5753,116.8911 C115.3793,116.8851 116.0483,117.2191 116.5813,117.8931 C116.9983,118.4201 117.2183,119.0021 117.2403,119.6401 C117.2633,120.2781 117.0923,120.9221 116.7293,121.5711 C116.3653,122.2201 115.8283,122.8261 115.1173,123.3881 C114.4573,123.9111 113.7823,124.3211 113.0933,124.6191" id="Fill-371" fill="#FFFFFF"></path>
            <path d="M124.0659,114.3262 C123.4719,114.7842 122.8939,115.0872 122.3319,115.2342 C122.1429,115.2922 121.9749,115.3072 121.8289,115.2832 C121.6829,115.2592 121.5309,115.1852 121.3719,115.0642 C121.1639,114.9052 121.0299,114.7002 120.9719,114.4472 C120.9149,114.1952 120.9499,113.9842 121.0799,113.8142 C121.1509,113.7222 121.2349,113.6412 121.3319,113.5752 C121.4289,113.5082 121.5639,113.4402 121.7359,113.3702 C122.2389,113.1782 122.6859,112.9352 123.0749,112.6412 C123.4629,112.3482 123.8299,111.9772 124.1729,111.5282 C124.5999,110.9702 124.8359,110.4722 124.8779,110.0352 C124.9209,109.5982 124.7729,109.2492 124.4299,108.9882 C124.1719,108.7912 123.8579,108.7692 123.4899,108.9232 C123.1209,109.0782 122.5969,109.4522 121.9179,110.0472 C121.1579,110.7142 120.4849,111.1962 119.8999,111.4952 C119.3159,111.7932 118.7739,111.9232 118.2759,111.8842 C117.7769,111.8452 117.2909,111.6432 116.8149,111.2812 C116.2899,110.8802 115.9339,110.3632 115.7499,109.7322 C115.5649,109.1012 115.5619,108.4222 115.7429,107.6932 C115.9219,106.9662 116.2749,106.2592 116.7989,105.5722 C117.7179,104.3692 118.7719,103.6042 119.9599,103.2762 C120.1569,103.2262 120.3279,103.2132 120.4739,103.2372 C120.6209,103.2632 120.7689,103.3322 120.9199,103.4462 C121.1279,103.6052 121.2609,103.8112 121.3189,104.0642 C121.3769,104.3162 121.3409,104.5272 121.2119,104.6962 C121.1399,104.7902 121.0619,104.8672 120.9749,104.9292 C120.8879,104.9902 120.7489,105.0602 120.5549,105.1412 C120.0729,105.3232 119.6669,105.5182 119.3349,105.7272 C119.0029,105.9372 118.6649,106.2662 118.3219,106.7162 C117.9269,107.2322 117.7139,107.7142 117.6839,108.1602 C117.6529,108.6062 117.8089,108.9612 118.1509,109.2222 C118.3509,109.3752 118.5589,109.4432 118.7759,109.4282 C118.9929,109.4122 119.2529,109.3082 119.5559,109.1182 C119.8609,108.9282 120.2539,108.6292 120.7389,108.2202 C121.8689,107.2592 122.8229,106.6762 123.5999,106.4722 C124.3779,106.2662 125.1079,106.4262 125.7919,106.9482 C126.3249,107.3552 126.6809,107.8662 126.8599,108.4792 C127.0389,109.0922 127.0319,109.7582 126.8389,110.4762 C126.6469,111.1942 126.2759,111.9142 125.7249,112.6352 C125.2129,113.3042 124.6609,113.8672 124.0659,114.3262" id="Fill-373" fill="#FFFFFF"></path>
            <path d="M20.6948,88.5981 C20.6948,89.7571 19.7558,90.6971 18.5958,90.6971 C17.4368,90.6971 16.4978,89.7571 16.4978,88.5981 C16.4978,87.4391 17.4368,86.4991 18.5958,86.4991 C19.7558,86.4991 20.6948,87.4391 20.6948,88.5981" id="Fill-375" fill="#FFFFFF"></path>
            <path d="M131.9302,88.5981 C131.9302,89.7571 130.9912,90.6971 129.8312,90.6971 C128.6722,90.6971 127.7332,89.7571 127.7332,88.5981 C127.7332,87.4391 128.6722,86.4991 129.8312,86.4991 C130.9912,86.4991 131.9302,87.4391 131.9302,88.5981" id="Fill-377" fill="#FFFFFF"></path>
            <path d="M74.1978,2.1895 C34.5338,2.1895 2.2648,34.4585 2.2648,74.1225 C2.2648,113.7865 34.5338,146.0545 74.1978,146.0545 C113.8608,146.0545 146.1298,113.7865 146.1298,74.1225 C146.1298,34.4585 113.8608,2.1895 74.1978,2.1895 M74.1978,148.0545 C33.4308,148.0545 0.2648,114.8885 0.2648,74.1225 C0.2648,33.3555 33.4308,0.1895 74.1978,0.1895 C114.9638,0.1895 148.1298,33.3555 148.1298,74.1225 C148.1298,114.8885 114.9638,148.0545 74.1978,148.0545" id="Fill-379" fill="#FFFFFF"></path>
            <path d="M45.7026,80.6582 C45.3886,80.6582 45.0746,80.7772 44.8356,81.0162 C44.6026,81.2482 44.4756,81.5562 44.4756,81.8842 C44.4756,82.2112 44.6026,82.5192 44.8356,82.7512 L47.9726,85.8882 L51.1166,82.7432 C51.3486,82.5122 51.4756,82.2032 51.4756,81.8762 C51.4756,81.5492 51.3486,81.2402 51.1166,81.0092 C50.6386,80.5302 49.8606,80.5302 49.3826,81.0092 L48.8906,81.5002 C48.3856,82.0082 47.5586,82.0082 47.0536,81.5002 L46.5696,81.0162 C46.3306,80.7772 46.0166,80.6582 45.7026,80.6582 M47.9726,88.1782 C47.6406,88.1782 47.3086,88.0522 47.0566,87.8012 L43.4216,84.1652 C42.8116,83.5562 42.4756,82.7462 42.4756,81.8842 C42.4756,81.0212 42.8116,80.2112 43.4216,79.6022 C44.6746,78.3482 46.7116,78.3452 47.9726,79.5912 C49.2316,78.3362 51.2746,78.3392 52.5306,79.5952 C53.1396,80.2032 53.4756,81.0132 53.4756,81.8762 C53.4756,82.7382 53.1396,83.5492 52.5306,84.1572 L48.8906,87.7982 C48.6386,88.0512 48.3056,88.1772 47.9726,88.1782" id="Fill-381" fill="#FFFFFF"></path>
            <path d="M45.7026,80.6582 C45.3886,80.6582 45.0746,80.7772 44.8356,81.0162 C44.6026,81.2482 44.4756,81.5562 44.4756,81.8842 C44.4756,82.2112 44.6026,82.5192 44.8356,82.7512 L47.9726,85.8882 L51.1166,82.7432 C51.3486,82.5122 51.4756,82.2032 51.4756,81.8762 C51.4756,81.5492 51.3486,81.2402 51.1166,81.0092 C50.6386,80.5302 49.8606,80.5302 49.3826,81.0092 L48.8906,81.5002 C48.3856,82.0082 47.5586,82.0082 47.0536,81.5002 L46.5696,81.0162 C46.3306,80.7772 46.0166,80.6582 45.7026,80.6582 M47.9726,88.1782 C47.6406,88.1782 47.3086,88.0522 47.0566,87.8012 L43.4216,84.1652 C42.8116,83.5562 42.4756,82.7462 42.4756,81.8842 C42.4756,81.0212 42.8116,80.2112 43.4216,79.6022 C44.6746,78.3482 46.7116,78.3452 47.9726,79.5912 C49.2316,78.3362 51.2746,78.3392 52.5306,79.5952 C53.1396,80.2032 53.4756,81.0132 53.4756,81.8762 C53.4756,82.7382 53.1396,83.5492 52.5306,84.1572 L48.8906,87.7982 C48.6386,88.0512 48.3056,88.1772 47.9726,88.1782" id="Fill-383" fill="#FFFFFF"></path>
            <path d="M73.4868,45.8809 C72.9338,45.8809 72.4868,45.4329 72.4868,44.8809 L72.4868,43.1309 C72.4868,42.5789 72.9338,42.1309 73.4868,42.1309 C74.0398,42.1309 74.4868,42.5789 74.4868,43.1309 L74.4868,44.8809 C74.4868,45.4329 74.0398,45.8809 73.4868,45.8809" id="Fill-385" fill="#FFFFFF"></path>
            <path d="M73.4868,51.6152 C72.9338,51.6152 72.4868,51.1672 72.4868,50.6152 L72.4868,48.8652 C72.4868,48.3132 72.9338,47.8652 73.4868,47.8652 C74.0398,47.8652 74.4868,48.3132 74.4868,48.8652 L74.4868,50.6152 C74.4868,51.1672 74.0398,51.6152 73.4868,51.6152" id="Fill-387" fill="#FFFFFF"></path>
            <path d="M71.5337,47.8652 L69.7837,47.8652 C69.2307,47.8652 68.7837,47.4172 68.7837,46.8652 C68.7837,46.3132 69.2307,45.8652 69.7837,45.8652 L71.5337,45.8652 C72.0867,45.8652 72.5337,46.3132 72.5337,46.8652 C72.5337,47.4172 72.0867,47.8652 71.5337,47.8652" id="Fill-389" fill="#FFFFFF"></path>
            <path d="M77.1587,47.8652 L75.4087,47.8652 C74.8557,47.8652 74.4087,47.4172 74.4087,46.8652 C74.4087,46.3132 74.8557,45.8652 75.4087,45.8652 L77.1587,45.8652 C77.7117,45.8652 78.1587,46.3132 78.1587,46.8652 C78.1587,47.4172 77.7117,47.8652 77.1587,47.8652" id="Fill-391" fill="#FFFFFF"></path>
            <path d="M45.2124,67.2227 C44.6604,67.2227 44.2124,67.6717 44.2124,68.2227 C44.2124,68.7737 44.6604,69.2227 45.2124,69.2227 C45.7644,69.2227 46.2124,68.7737 46.2124,68.2227 C46.2124,67.6717 45.7644,67.2227 45.2124,67.2227 M45.2124,71.2227 C43.5584,71.2227 42.2124,69.8767 42.2124,68.2227 C42.2124,66.5687 43.5584,65.2227 45.2124,65.2227 C46.8664,65.2227 48.2124,66.5687 48.2124,68.2227 C48.2124,69.8767 46.8664,71.2227 45.2124,71.2227" id="Fill-393" fill="#FFFFFF"></path>
            <path d="M102.1538,84.4141 C101.6018,84.4141 101.1538,84.8621 101.1538,85.4141 C101.1538,85.9661 101.6018,86.4141 102.1538,86.4141 C102.7058,86.4141 103.1538,85.9661 103.1538,85.4141 C103.1538,84.8621 102.7058,84.4141 102.1538,84.4141 M102.1538,88.4141 C100.4998,88.4141 99.1538,87.0681 99.1538,85.4141 C99.1538,83.7601 100.4998,82.4141 102.1538,82.4141 C103.8078,82.4141 105.1538,83.7601 105.1538,85.4141 C105.1538,87.0681 103.8078,88.4141 102.1538,88.4141" id="Fill-395" fill="#FFFFFF"></path>
            <path d="M57.3081,103.4033 C56.7561,103.4033 56.3081,103.8513 56.3081,104.4033 C56.3081,104.9553 56.7561,105.4033 57.3081,105.4033 C57.8601,105.4033 58.3081,104.9553 58.3081,104.4033 C58.3081,103.8513 57.8601,103.4033 57.3081,103.4033 M57.3081,107.4033 C55.6541,107.4033 54.3081,106.0573 54.3081,104.4033 C54.3081,102.7493 55.6541,101.4033 57.3081,101.4033 C58.9621,101.4033 60.3081,102.7493 60.3081,104.4033 C60.3081,106.0573 58.9621,107.4033 57.3081,107.4033" id="Fill-397" fill="#FFFFFF"></path>
            <path d="M105.1533,73.937 C105.1533,75.041 104.2583,75.937 103.1533,75.937 C102.0493,75.937 101.1533,75.041 101.1533,73.937 C101.1533,72.833 102.0493,71.937 103.1533,71.937 C104.2583,71.937 105.1533,72.833 105.1533,73.937" id="Fill-399" fill="#FFFFFF"></path>
            <path d="M86.2959,46.873 C86.2959,47.977 85.3999,48.873 84.2959,48.873 C83.1919,48.873 82.2959,47.977 82.2959,46.873 C82.2959,45.769 83.1919,44.873 84.2959,44.873 C85.3999,44.873 86.2959,45.769 86.2959,46.873" id="Fill-401" fill="#FFFFFF"></path>
            <path d="M53.4126,110.9443 L94.9816,110.9443 L115.7666,74.9443 L94.9816,38.9443 L53.4126,38.9443 L32.6276,74.9443 L53.4126,110.9443 Z M95.5586,112.9443 L52.8356,112.9443 C52.4776,112.9443 52.1476,112.7543 51.9696,112.4443 L30.6066,75.4443 C30.4286,75.1343 30.4286,74.7543 30.6066,74.4443 L51.9696,37.4443 C52.1476,37.1343 52.4776,36.9443 52.8356,36.9443 L95.5586,36.9443 C95.9166,36.9443 96.2466,37.1343 96.4256,37.4443 L117.7876,74.4443 C117.9666,74.7543 117.9666,75.1343 117.7876,75.4443 L96.4256,112.4443 C96.2466,112.7543 95.9166,112.9443 95.5586,112.9443 Z" id="Fill-403" fill="#FFFFFF"></path>
            <path d="M91.1011,102.2764 L91.1991,102.2764 C93.2151,102.2764 94.8561,100.6354 94.8561,98.6194 L94.8561,95.3814 C92.7121,95.8424 91.1011,97.7524 91.1011,100.0314 L91.1011,102.2764 Z M91.1991,104.2764 L90.1011,104.2764 C89.5481,104.2764 89.1011,103.8294 89.1011,103.2764 L89.1011,100.0314 C89.1011,96.3064 92.1311,93.2764 95.8561,93.2764 C96.4091,93.2764 96.8561,93.7234 96.8561,94.2764 L96.8561,98.6194 C96.8561,101.7384 94.3181,104.2764 91.1991,104.2764 Z" id="Fill-405" fill="#FFFFFF"></path>
            <path d="M90.1021,104.2764 C90.0801,104.2764 90.0571,104.2754 90.0351,104.2744 C86.9551,104.0694 84.5411,101.4894 84.5411,98.4004 L84.5411,94.2884 C84.5411,93.7354 84.9891,93.2884 85.5411,93.2884 C88.1251,93.2884 90.4451,94.7264 91.5941,97.0424 C91.8401,97.5364 91.6381,98.1364 91.1431,98.3814 C90.6501,98.6294 90.0491,98.4254 89.8031,97.9304 C89.1451,96.6064 87.9441,95.6894 86.5411,95.3924 L86.5411,98.4004 C86.5411,100.4404 88.1341,102.1434 90.1671,102.2784 C90.7181,102.3154 91.1351,102.7924 91.0991,103.3424 C91.0641,103.8714 90.6241,104.2764 90.1021,104.2764" id="Fill-407" fill="#FFFFFF"></path>
            <path d="M88.5864,94.0137 C89.3914,94.4217 90.1094,94.9907 90.6934,95.6777 C91.2784,94.9867 91.9984,94.4147 92.8074,94.0037 C92.3224,93.0217 91.5994,92.1737 90.6984,91.5387 C89.7944,92.1757 89.0694,93.0267 88.5864,94.0137 Z M90.6954,98.4817 C90.3164,98.4817 89.9694,98.2667 89.8004,97.9267 C89.2294,96.7797 88.2024,95.8997 86.9844,95.5117 C86.7314,95.4307 86.5204,95.2517 86.3984,95.0147 C86.2764,94.7787 86.2554,94.5017 86.3374,94.2487 C86.9924,92.2407 88.3624,90.5487 90.1974,89.4877 C90.5084,89.3077 90.8894,89.3077 91.1994,89.4877 C93.0294,90.5457 94.3984,92.2327 95.0564,94.2367 C95.1394,94.4897 95.1174,94.7657 94.9964,95.0027 C94.8754,95.2407 94.6644,95.4187 94.4104,95.4997 C93.1894,95.8907 92.1614,96.7747 91.5924,97.9247 C91.4234,98.2657 91.0764,98.4817 90.6964,98.4817 L90.6954,98.4817 Z" id="Fill-409" fill="#FFFFFF"></path>
            <path d="M90.1011,112.9443 C89.5481,112.9443 89.1011,112.4973 89.1011,111.9443 L89.1011,103.2763 C89.1011,102.7233 89.5481,102.2763 90.1011,102.2763 C90.6541,102.2763 91.1011,102.7233 91.1011,103.2763 L91.1011,111.9443 C91.1011,112.4973 90.6541,112.9443 90.1011,112.9443" id="Fill-411" fill="#FFFFFF"></path>
            <path d="M74.6372,98.7725 C74.6402,98.7805 74.6422,98.7875 74.6452,98.7935 L74.6372,98.7725 Z M71.8552,103.2225 L71.8332,103.2305 C71.8412,103.2275 71.8482,103.2255 71.8552,103.2225 Z M79.1072,103.2345 L79.1162,103.2345 L79.1072,103.2345 Z M73.8482,102.4035 C74.5132,102.7985 75.0692,103.3545 75.4642,104.0195 C75.8602,103.3545 76.4152,102.7985 77.0802,102.4035 C76.4152,102.0075 75.8602,101.4525 75.4642,100.7875 C75.0692,101.4525 74.5132,102.0075 73.8482,102.4035 Z M74.6412,106.0245 C74.6382,106.0315 74.6352,106.0395 74.6332,106.0455 L74.6412,106.0245 Z M75.4642,107.4575 C75.0002,107.4575 74.5792,107.1655 74.4162,106.7315 L73.9562,105.4845 C73.6872,104.7535 73.1142,104.1805 72.3832,103.9115 L71.1422,103.4535 C70.7022,103.2885 70.4102,102.8675 70.4102,102.4035 C70.4102,101.9305 70.7092,101.5065 71.1542,101.3495 L72.3832,100.8955 C73.1142,100.6265 73.6872,100.0525 73.9562,99.3225 L74.4142,98.0815 C74.5792,97.6415 75.0002,97.3495 75.4642,97.3495 C75.9372,97.3495 76.3612,97.6485 76.5182,98.0925 L76.9722,99.3225 C77.2412,100.0525 77.8152,100.6265 78.5462,100.8955 L79.7842,101.3525 C80.2242,101.5135 80.5192,101.9335 80.5192,102.4035 C80.5192,102.8675 80.2272,103.2885 79.7922,103.4515 L78.5452,103.9115 C77.8152,104.1805 77.2412,104.7535 76.9722,105.4845 L76.5142,106.7255 C76.3612,107.1585 75.9372,107.4575 75.4642,107.4575 Z" id="Fill-413" fill="#FFFFFF"></path>
            <path d="M93.9165,62.8672 L93.8645,62.9422 C92.4745,64.8902 90.9545,66.2422 89.3475,66.9592 C88.1595,67.4902 86.6545,67.7472 84.7455,67.7472 C84.0495,67.7472 83.2935,67.7132 82.4355,67.6422 C80.8145,67.5082 79.4615,67.2732 78.3435,66.9282 C78.7755,65.8312 79.4405,64.6162 80.3535,63.2542 C81.4485,61.6202 83.1435,59.3242 85.2075,58.2472 C86.5575,57.5432 88.2395,57.1862 90.2075,57.1862 C90.5205,57.1862 90.8315,57.1952 91.1435,57.2122 L91.2035,57.2152 C92.4895,57.2952 93.6015,58.0522 94.1765,59.2392 C94.7575,60.4382 94.6605,61.7942 93.9165,62.8672 Z M82.1315,80.5522 C80.6315,82.0452 78.5445,82.5962 76.5495,82.0252 L76.4505,81.9972 C75.9745,81.8582 75.5205,81.7052 75.0775,81.5442 L83.1635,73.4572 C83.3335,73.9252 83.4965,74.4052 83.6435,74.9122 C84.2115,76.9352 83.6455,79.0442 82.1315,80.5522 Z M73.1685,80.7352 C72.4765,80.3922 71.8425,80.0132 71.2575,79.6042 C71.1285,78.4522 70.9185,77.2742 70.5795,76.1442 L77.8685,68.8552 C78.9385,69.1772 80.0515,69.3842 81.1455,69.5132 C81.5865,70.1312 81.9915,70.8122 82.3595,71.5582 C82.2325,71.6072 82.1135,71.6792 82.0115,71.7812 L73.3875,80.4062 C73.2905,80.5032 73.2175,80.6162 73.1685,80.7352 Z M69.6765,74.2192 C68.9145,74.3872 68.1575,74.6452 67.4185,74.9672 C66.7845,73.6722 66.3055,72.3182 65.9415,71.0982 C67.4935,70.7672 69.0325,69.9562 70.3055,68.6822 C71.5795,67.4092 72.3845,65.8692 72.7155,64.3172 C73.9515,64.6852 75.3275,65.1732 76.6385,65.8212 C76.3415,66.5202 76.1015,67.2342 75.9435,67.9522 L69.6765,74.2192 Z M68.6835,87.6232 C67.9665,89.2312 66.6155,90.7502 64.6665,92.1402 L64.5905,92.1932 C63.9825,92.6152 63.3075,92.8282 62.5825,92.8282 C60.8945,92.8282 59.0695,91.5752 58.9395,89.4752 L58.9365,89.4172 C58.8095,87.0402 59.1575,85.0432 59.9715,83.4842 C61.0485,81.4192 63.3445,79.7242 64.9785,78.6292 C66.3395,77.7172 67.5555,77.0522 68.6525,76.6192 C68.9975,77.7372 69.2325,79.0912 69.3665,80.7112 C69.5265,82.6612 69.6305,85.5002 68.6835,87.6232 Z M62.2245,60.6012 C63.5475,59.2782 65.2215,58.5892 66.7555,58.5892 C67.8945,58.5892 68.9565,58.9692 69.7395,59.7522 C71.5775,61.5912 71.1965,64.9622 68.8915,67.2682 C66.5855,69.5742 63.2145,69.9542 61.3745,68.1172 C60.5105,67.2522 60.1055,66.0142 60.2375,64.6302 C60.3765,63.1742 61.0815,61.7432 62.2245,60.6012 Z M91.3275,55.2192 C91.3005,55.2172 91.2735,55.2162 91.2475,55.2142 C90.9025,55.1962 90.5555,55.1862 90.2075,55.1862 C88.1675,55.1862 86.1015,55.5252 84.2825,56.4742 C81.9565,57.6872 80.1295,59.9952 78.6915,62.1402 C78.2965,62.7312 77.9035,63.3602 77.5375,64.0122 C77.2185,63.8542 76.8965,63.7202 76.5755,63.5812 C76.6525,63.4912 76.7195,63.3892 76.7625,63.2712 C77.3955,61.4922 76.8505,59.5692 75.4025,58.4872 C74.9605,58.1572 74.3335,58.2482 74.0035,58.6892 C73.6725,59.1322 73.7635,59.7582 74.2055,60.0892 C74.9575,60.6512 75.2215,61.6362 74.8775,62.5992 C74.8425,62.6982 74.8385,62.7972 74.8345,62.8962 C74.1495,62.6582 73.4935,62.4552 72.8705,62.2802 C72.7745,60.7932 72.2145,59.3992 71.1535,58.3382 C69.8605,57.0452 68.0615,56.4342 66.0625,56.6252 C65.0125,56.7252 63.9805,57.0502 63.0175,57.5592 C62.5395,57.1082 62.1955,56.5572 61.9995,55.9462 C61.9655,55.8412 61.9355,55.7352 61.9105,55.6262 C61.7295,54.8472 61.7695,53.9972 62.0695,53.1542 C62.2565,52.6342 61.9845,52.0622 61.4645,51.8762 C60.9405,51.6902 60.3715,51.9622 60.1875,52.4822 C59.3785,54.7452 59.8395,57.0762 61.3335,58.7042 C61.1545,58.8582 60.9785,59.0182 60.8105,59.1872 C60.6265,59.3712 60.4515,59.5602 60.2865,59.7552 C58.6595,58.2612 56.3255,57.8002 54.0625,58.6072 C53.5415,58.7922 53.2705,59.3652 53.4565,59.8852 C53.6415,60.4052 54.2115,60.6752 54.7335,60.4912 C55.5755,60.1902 56.4255,60.1512 57.2035,60.3292 C57.3145,60.3552 57.4225,60.3862 57.5305,60.4212 C58.1455,60.6192 58.6985,60.9672 59.1515,61.4502 C58.6595,62.3972 58.3445,63.4102 58.2465,64.4402 C58.0585,66.4292 58.6665,68.2372 59.9605,69.5312 C61.0195,70.5902 62.4145,71.1332 63.8975,71.2302 C64.0745,71.8612 64.2795,72.5252 64.5215,73.2192 C64.4185,73.2212 64.3155,73.2262 64.2135,73.2632 C63.2505,73.6082 62.2665,73.3442 61.7035,72.5912 C61.3735,72.1492 60.7465,72.0572 60.3045,72.3882 C59.8615,72.7192 59.7705,73.3462 60.1025,73.7882 C60.8835,74.8332 62.1035,75.4082 63.3905,75.4082 C63.8855,75.4082 64.3915,75.3232 64.8855,75.1472 C65.0075,75.1042 65.1125,75.0352 65.2055,74.9552 C65.3385,75.2642 65.4675,75.5742 65.6175,75.8812 C65.0085,76.2282 64.4195,76.5962 63.8645,76.9682 C61.7195,78.4062 59.4115,80.2332 58.1985,82.5582 C57.0875,84.6872 56.8125,87.1552 56.9385,89.5242 C56.9395,89.5502 56.9415,89.5762 56.9435,89.6032 C57.1375,92.7192 59.7885,94.8282 62.5825,94.8282 C63.6545,94.8282 64.7465,94.5192 65.7305,93.8372 C65.7635,93.8142 65.7955,93.7912 65.8275,93.7682 C67.7665,92.3862 69.5325,90.6302 70.5105,88.4382 C71.3695,86.5122 71.5285,84.2412 71.4495,82.0922 C72.7505,82.8242 74.2275,83.4332 75.8715,83.9112 L76.0005,83.9492 C76.5625,84.1102 77.1295,84.1872 77.6945,84.2192 C77.1605,85.9442 77.7065,87.7702 79.1025,88.8152 C79.2825,88.9502 79.4925,89.0142 79.7005,89.0142 C80.0055,89.0142 80.3065,88.8762 80.5025,88.6142 C80.8335,88.1722 80.7425,87.5452 80.3015,87.2142 C79.5495,86.6512 79.2845,85.6662 79.6285,84.7032 C79.7025,84.4972 79.6875,84.2882 79.6305,84.0942 C81.0745,83.7972 82.4295,83.0762 83.5425,81.9702 C84.6665,80.8502 85.3845,79.4812 85.6875,78.0212 C85.8855,78.0822 86.0995,78.0982 86.3105,78.0222 C87.2715,77.6802 88.2575,77.9432 88.8195,78.6952 C89.0165,78.9572 89.3165,79.0962 89.6215,79.0962 C89.8295,79.0962 90.0405,79.0312 90.2205,78.8962 C90.6615,78.5652 90.7525,77.9382 90.4215,77.4962 C89.3785,76.1032 87.5585,75.5582 85.8365,76.0852 C85.8075,75.5142 85.7285,74.9402 85.5685,74.3712 C85.5675,74.3682 85.5405,74.2722 85.5395,74.2692 C85.0455,72.5692 84.4145,71.0502 83.6535,69.7202 C84.0145,69.7352 84.3785,69.7472 84.7455,69.7472 C86.6085,69.7472 88.5125,69.5222 90.1625,68.7862 C92.3545,67.8082 94.1095,66.0422 95.4925,64.1032 C95.5155,64.0712 95.5375,64.0392 95.5605,64.0062 C98.0215,60.4562 95.6385,55.4872 91.3275,55.2192 Z" id="Fill-415" fill="#FFFFFF"></path>
            <path d="M57.5308,60.4209 C57.4228,60.3859 57.3148,60.3549 57.2028,60.3299 L57.5308,60.4209 Z" id="Fill-417" fill="#FF3131"></path>
            <path d="M61.9102,55.6265 C61.9352,55.7345 61.9652,55.8415 61.9992,55.9465 L61.9102,55.6265 Z" id="Fill-419" fill="#FF3131"></path>
        </g>
    </g>
</svg>