<?xml version="1.0" encoding="UTF-8"?>
<svg width="155px" height="142px" viewBox="0 0 155 142" version="1.1" xmlns="http://www.w3.org/2000/svg" xmlns:xlink="http://www.w3.org/1999/xlink">
    <!-- Generator: Sketch 50.2 (55047) - http://www.bohemiancoding.com/sketch -->
    <title>Group 303</title>
    <desc>Created with Sketch.</desc>
    <defs></defs>
    <g id="Page-1" stroke="none" stroke-width="1" fill="none" fill-rule="evenodd">
        <g id="Group-303">
            <path d="M31.4346,138.436 L31.8896,128.878 L81.9436,128.878 L82.4046,138.436 L31.4346,138.436 Z M34.3166,77.906 L44.3306,77.906 L44.3306,89.056 C44.3306,89.936 45.0436,90.649 45.9236,90.649 C46.8036,90.649 47.5166,89.936 47.5166,89.056 L47.5166,77.906 L66.6316,77.906 L66.6316,89.056 C66.6316,89.936 67.3446,90.649 68.2246,90.649 C69.1036,90.649 69.8166,89.936 69.8166,89.056 L69.8166,77.906 L79.3746,77.906 L79.4486,77.906 L79.4856,77.906 L81.7906,125.693 L32.0416,125.693 L34.3166,77.906 Z M57.0736,65.163 C62.3436,65.163 66.6316,69.45 66.6316,74.72 L47.5166,74.72 C47.5166,69.45 51.8046,65.163 57.0736,65.163 Z M82.7056,77.754 C82.6246,76.055 81.2226,74.72 79.5226,74.72 L69.8166,74.72 C69.8166,67.682 64.1116,61.977 57.0736,61.977 C50.0366,61.977 44.3306,67.682 44.3306,74.72 L34.3166,74.72 C32.6166,74.72 31.2146,76.055 31.1346,77.754 L28.2516,138.284 C28.1656,140.101 29.6156,141.622 31.4346,141.622 L82.4046,141.622 C84.2236,141.622 85.6736,140.101 85.5876,138.284 L82.7056,77.754 Z" id="Fill-247" fill="#FFE3E3"></path>
            <polygon id="Fill-249" fill="#FFFFFF" points="56.0181 140.3071 1.7911 140.3071 4.7911 76.1441 53.0181 76.1441"></polygon>
            <path d="M3.5073,138.4937 L3.9623,128.9357 L54.0173,128.9357 L54.4783,138.4937 L3.5073,138.4937 Z M6.3893,77.9637 L16.4033,77.9637 L16.4033,89.1137 C16.4033,89.9937 17.1173,90.7067 17.9963,90.7067 C18.8763,90.7067 19.5903,89.9937 19.5903,89.1137 L19.5903,77.9637 L38.7043,77.9637 L38.7043,89.1137 C38.7043,89.9937 39.4173,90.7067 40.2973,90.7067 C41.1763,90.7067 41.8903,89.9937 41.8903,89.1137 L41.8903,77.9637 L51.4473,77.9637 L51.5213,77.9637 L51.5583,77.9637 L53.8633,125.7507 L4.1143,125.7507 L6.3893,77.9637 Z M29.1473,65.2207 C34.4173,65.2207 38.7043,69.5077 38.7043,74.7777 L19.5903,74.7777 C19.5903,69.5077 23.8773,65.2207 29.1473,65.2207 Z M54.7783,77.8117 C54.6973,76.1127 53.2963,74.7777 51.5953,74.7777 L41.8903,74.7777 C41.8903,67.7397 36.1843,62.0347 29.1473,62.0347 C22.1093,62.0347 16.4033,67.7397 16.4033,74.7777 L6.3893,74.7777 C4.6893,74.7777 3.2883,76.1127 3.2073,77.8117 L0.3243,138.3427 C0.2393,140.1587 1.6893,141.6797 3.5073,141.6797 L54.4783,141.6797 C56.2963,141.6797 57.7463,140.1587 57.6603,138.3427 L54.7783,77.8117 Z" id="Fill-251" fill="#FF3131"></path>
            <path d="M87.4507,30.1587 C85.0687,27.7767 81.2057,27.7767 78.8237,30.1587 L77.4777,31.5047 C77.1567,31.8257 76.6367,31.8257 76.3157,31.5047 L74.9917,30.1797 C72.6087,27.7987 68.7457,27.7987 66.3637,30.1797 C63.9807,32.5627 63.9807,36.4257 66.3637,38.8077 L76.3167,48.7617 C76.6377,49.0817 77.1577,49.0817 77.4777,48.7617 L87.4507,38.7867 C89.8337,36.4037 89.8337,32.5417 87.4507,30.1587" id="Fill-253" fill="#FF3131"></path>
            <path d="M87.4507,30.1587 C85.0687,27.7767 81.2057,27.7767 78.8237,30.1587 L77.4777,31.5047 C77.1567,31.8257 76.6367,31.8257 76.3157,31.5047 L74.9917,30.1797 C72.6087,27.7987 68.7457,27.7987 66.3637,30.1797 C63.9807,32.5627 63.9807,36.4257 66.3637,38.8077 L76.3167,48.7617 C76.6377,49.0817 77.1577,49.0817 77.4777,48.7617 L87.4507,38.7867 C89.8337,36.4037 89.8337,32.5417 87.4507,30.1587" id="Fill-255" fill="#FF3131"></path>
            <path d="M108.5439,1.8931 C106.1609,-0.4899 102.2979,-0.4899 99.9159,1.8931 L98.5699,3.2391 C98.2499,3.5591 97.7289,3.5591 97.4079,3.2391 L96.0839,1.9141 C93.7019,-0.4679 89.8389,-0.4679 87.4559,1.9141 C85.0739,4.2961 85.0739,8.1601 87.4559,10.5411 L97.4089,20.4951 C97.7299,20.8151 98.2499,20.8151 98.5709,20.4951 L108.5439,10.5201 C110.9259,8.1381 110.9259,4.2751 108.5439,1.8931" id="Fill-257" fill="#FFE3E3"></path>
            <path d="M108.5439,1.8931 C106.1609,-0.4899 102.2979,-0.4899 99.9159,1.8931 L98.5699,3.2391 C98.2499,3.5591 97.7289,3.5591 97.4079,3.2391 L96.0839,1.9141 C93.7019,-0.4679 89.8389,-0.4679 87.4559,1.9141 C85.0739,4.2961 85.0739,8.1601 87.4559,10.5411 L97.4089,20.4951 C97.7299,20.8151 98.2499,20.8151 98.5709,20.4951 L108.5439,10.5201 C110.9259,8.1381 110.9259,4.2751 108.5439,1.8931" id="Fill-259" fill="#FFE3E3"></path>
            <path d="M134.498,65.1489 C131.493,62.3229 127.125,60.8119 123.202,59.7939 C119.998,58.9619 116.331,58.3079 112.991,58.7589 L112.936,58.7049 C112.934,58.7249 112.933,58.7459 112.93,58.7649 C112.91,58.7679 112.89,58.7689 112.87,58.7709 L112.924,58.8259 C112.473,62.1669 113.128,65.8339 113.959,69.0369 C114.977,72.9609 116.488,77.3279 119.313,80.3329 C121.9,83.0839 125.428,84.7719 129.018,85.8149 C129.063,85.8279 129.107,85.8399 129.152,85.8529 C135.707,87.7259 141.858,81.5369 140.014,74.9729 C140.003,74.9319 139.992,74.8919 139.98,74.8529 C138.936,71.2619 137.248,67.7349 134.498,65.1489" id="Fill-261" fill="#FF3131"></path>
            <path d="M121.5542,54.6411 C124.4632,57.5501 123.9682,62.7621 120.4482,66.2831 C116.9272,69.8031 111.7152,70.2981 108.8052,67.3891 C105.8962,64.4801 106.3922,59.2681 109.9122,55.7471 C113.4322,52.2271 118.6452,51.7321 121.5542,54.6411" id="Fill-263" fill="#FFFFFF"></path>
            <path d="M121.5542,54.6411 C124.4632,57.5501 123.9682,62.7621 120.4482,66.2831 C116.9272,69.8031 111.7152,70.2981 108.8052,67.3891 C105.8962,64.4801 106.3922,59.2681 109.9122,55.7471 C113.4322,52.2271 118.6452,51.7321 121.5542,54.6411 Z" id="Stroke-265" stroke="#FF3131" stroke-width="3" stroke-linecap="round"></path>
            <path d="M124.873,84.8462 L139.04,70.6802" id="Stroke-267" stroke="#FFFFFF" stroke-width="3" stroke-linecap="round" stroke-linejoin="round"></path>
            <path d="M119.1938,77.6226 L131.7328,65.0846" id="Stroke-269" stroke="#FFFFFF" stroke-width="3" stroke-linecap="round" stroke-linejoin="round"></path>
            <g id="Group-274" transform="translate(100.000000, 54.000000)">
                <path d="M8.2441,3.4155 C6.6141,1.2355 3.6671,0.2135 0.6321,1.2965" id="Fill-271" fill="#FFFFFF"></path>
                <path d="M8.2441,3.4155 C6.6141,1.2355 3.6671,0.2135 0.6321,1.2965" id="Stroke-273" stroke="#FF3131" stroke-width="3" stroke-linecap="round"></path>
            </g>
            <g id="Group-278" transform="translate(108.000000, 46.000000)">
                <path d="M3.5249,8.1343 C1.3449,6.5043 0.3229,3.5583 1.4059,0.5233" id="Fill-275" fill="#FFFFFF"></path>
                <path d="M3.5249,8.1343 C1.3449,6.5043 0.3229,3.5583 1.4059,0.5233" id="Stroke-277" stroke="#FF3131" stroke-width="3" stroke-linecap="round"></path>
            </g>
            <g id="Group-282" transform="translate(131.000000, 86.000000)">
                <path d="M1.6206,5.4077 C0.2586,4.3887 -0.3794,2.5497 0.2966,0.6527" id="Fill-279" fill="#FFFFFF"></path>
                <path d="M1.6206,5.4077 C0.2586,4.3887 -0.3794,2.5497 0.2966,0.6527" id="Stroke-281" stroke="#FF3131" stroke-width="3" stroke-linecap="round"></path>
            </g>
            <g id="Group-286" transform="translate(140.000000, 76.000000)">
                <path d="M5.5508,2.4771 C4.5328,1.1161 2.6928,0.4771 0.7968,1.1541" id="Fill-283" fill="#FFFFFF"></path>
                <path d="M5.5508,2.4771 C4.5328,1.1161 2.6928,0.4771 0.7968,1.1541" id="Stroke-285" stroke="#FF3131" stroke-width="3" stroke-linecap="round"></path>
            </g>
            <g id="Group-290" transform="translate(127.000000, 55.000000)">
                <path d="M0.2358,0.9565 C1.5968,1.9755 2.2358,3.8145 1.5588,5.7115" id="Fill-287" fill="#FFFFFF"></path>
                <path d="M0.2358,0.9565 C1.5968,1.9755 2.2358,3.8145 1.5588,5.7115" id="Stroke-289" stroke="#FF3131" stroke-width="3" stroke-linecap="round"></path>
            </g>
            <g id="Group-294" transform="translate(110.000000, 73.000000)">
                <path d="M0.1123,0.0806 C1.1303,1.4426 2.9703,2.0806 4.8663,1.4036" id="Fill-291" fill="#FFFFFF"></path>
                <path d="M0.1123,0.0806 C1.1303,1.4426 2.9703,2.0806 4.8663,1.4036" id="Stroke-293" stroke="#FF3131" stroke-width="3" stroke-linecap="round"></path>
            </g>
            <path d="M139.5532,66.3257 C138.6142,66.3257 137.5992,66.2797 136.4492,66.1847 C133.7192,65.9607 131.5282,65.5147 129.7942,64.8297 C130.3412,63.0487 131.3672,61.0397 132.9062,58.7437 C134.4012,56.5127 136.7272,53.3727 139.6422,51.8517 C141.5612,50.8497 143.9272,50.3427 146.6752,50.3427 C147.1012,50.3427 147.5262,50.3547 147.9492,50.3777 L148.0492,50.3837 C150.1212,50.5127 151.9172,51.7307 152.8442,53.6427 C153.7782,55.5707 153.6192,57.7557 152.4192,59.4867 L152.3422,59.5957 C150.4132,62.3007 148.2812,64.1867 146.0032,65.2027 C144.3092,65.9587 142.1992,66.3257 139.5532,66.3257" id="Fill-295" fill="#FFFFFF"></path>
            <path d="M146.6733,48.8423 C144.0133,48.8423 141.3193,49.2843 138.9483,50.5213 C135.9163,52.1033 133.5343,55.1133 131.6603,57.9083 C130.1303,60.1923 128.6093,62.8873 128.0413,65.6273 L128.0333,65.6793 L128.0743,65.6983 C130.5563,66.9653 133.5983,67.4553 136.3263,67.6803 C137.3663,67.7663 138.4533,67.8253 139.5513,67.8253 C141.9803,67.8253 144.4633,67.5313 146.6133,66.5723 C149.4713,65.2983 151.7603,62.9953 153.5633,60.4673 C153.5923,60.4263 153.6223,60.3843 153.6513,60.3413 C156.8603,55.7133 153.7523,49.2353 148.1323,48.8853 C148.0973,48.8833 148.0633,48.8813 148.0283,48.8793 C147.5793,48.8563 147.1273,48.8423 146.6733,48.8423 M146.6733,51.8423 C147.0613,51.8423 147.4643,51.8543 147.8693,51.8753 L147.9463,51.8793 C149.4803,51.9753 150.8063,52.8793 151.4933,54.2983 C152.1883,55.7323 152.0733,57.3523 151.1843,58.6343 L151.1203,58.7263 C149.3493,61.2083 147.4223,62.9273 145.3913,63.8333 C143.8943,64.5013 141.9843,64.8253 139.5513,64.8253 C138.6543,64.8253 137.6803,64.7813 136.5723,64.6903 C134.6833,64.5343 133.0803,64.2723 131.7343,63.8973 C132.2853,62.5983 133.0873,61.1683 134.1523,59.5793 C135.5553,57.4863 137.7243,54.5433 140.3363,53.1813 C142.0383,52.2933 144.1713,51.8423 146.6733,51.8423" id="Fill-297" fill="#FF3131"></path>
            <path d="M110.6807,99.2905 C107.9677,99.2905 105.0357,97.2685 104.8257,93.8855 C104.6447,90.4935 105.1407,87.6985 106.2947,85.4865 C107.8147,82.5725 110.9557,80.2475 113.1867,78.7515 C115.4757,77.2175 117.4787,76.1915 119.2717,75.6405 C119.9567,77.3735 120.4027,79.5645 120.6277,82.2945 C120.8477,84.9585 120.9847,88.8475 119.6457,91.8485 C118.6297,94.1265 116.7437,96.2595 114.0397,98.1865 L113.9297,98.2655 C112.9617,98.9365 111.8387,99.2905 110.6807,99.2905" id="Fill-299" fill="#FFFFFF"></path>
            <path d="M120.1221,73.8784 L120.0711,73.8864 C117.3301,74.4544 114.6351,75.9754 112.3521,77.5054 C109.5561,79.3794 106.5461,81.7614 104.9641,84.7934 C103.5171,87.5684 103.1581,90.7854 103.3221,93.8744 C103.3241,93.9084 103.3261,93.9424 103.3291,93.9784 C103.5811,98.0404 107.0371,100.7904 110.6801,100.7904 C112.0771,100.7904 113.5011,100.3864 114.7841,99.4964 C114.8271,99.4674 114.8691,99.4374 114.9111,99.4074 C117.4381,97.6054 119.7411,95.3164 121.0161,92.4584 C122.4091,89.3364 122.3981,85.5124 122.1221,82.1714 C121.8981,79.4434 121.4081,76.4014 120.1411,73.9194 L120.1221,73.8784 Z M118.3391,77.5784 C118.7151,78.9254 118.9771,80.5284 119.1331,82.4174 C119.3391,84.9174 119.4741,88.5514 118.2761,91.2364 C117.3701,93.2674 115.6521,95.1944 113.1641,96.9684 L113.0751,97.0314 C112.3491,97.5344 111.5431,97.7904 110.6801,97.7904 C108.6611,97.7904 106.4781,96.2944 106.3231,93.7944 L106.3181,93.7144 C106.1571,90.6864 106.5961,88.1514 107.6241,86.1814 C108.9871,83.5694 111.9281,81.4004 114.0221,79.9974 C115.6111,78.9324 117.0411,78.1304 118.3391,77.5784 Z" id="Fill-301" fill="#FF3131"></path>
        </g>
    </g>
</svg>