<?xml version="1.0" encoding="UTF-8"?>
<svg width="178px" height="142px" viewBox="0 0 178 142" version="1.1" xmlns="http://www.w3.org/2000/svg" xmlns:xlink="http://www.w3.org/1999/xlink">
    <!-- Generator: Sketch 50.2 (55047) - http://www.bohemiancoding.com/sketch -->
    <title>Group 246</title>
    <desc>Created with Sketch.</desc>
    <defs></defs>
    <g id="Page-1" stroke="none" stroke-width="1" fill="none" fill-rule="evenodd">
        <g id="Group-246" transform="translate(2.000000, 1.000000)">
            <path d="M18.8032,89.0796 C12.6042,89.7586 6.2992,89.4496 0.1972,88.1686" id="Stroke-230" stroke="#FFE3E3" stroke-width="3" stroke-linecap="round" stroke-linejoin="round"></path>
            <path d="M34.4194,38.8208 C30.7424,35.4248 27.2624,31.8178 24.0004,28.0228" id="Stroke-232" stroke="#FF3131" stroke-width="3" stroke-linecap="round" stroke-linejoin="round"></path>
            <path d="M142.4404,38.6245 C145.4904,34.3805 148.3104,29.9705 150.8834,25.4205" id="Stroke-234" stroke="#FF3131" stroke-width="3" stroke-linecap="round" stroke-linejoin="round"></path>
            <path d="M155.7666,89.188 C161.9546,89.366 168.1486,89.318 174.3336,89.043" id="Stroke-236" stroke="#FFE3E3" stroke-width="3" stroke-linecap="round" stroke-linejoin="round"></path>
            <path d="M121.1982,111.5063 L93.8152,136.0403 C92.8292,136.9733 91.5382,137.4733 90.2312,137.4733 C89.7192,137.4733 89.2042,137.3963 88.7032,137.2373 L60.8782,127.5803 C60.5092,127.4553 60.1182,127.4793 59.7772,127.6523 L55.1902,129.9433 L55.1902,106.7853 L66.9982,103.8363 L82.8972,109.1353 C84.4892,109.6643 85.5582,111.1523 85.5582,112.8353 C85.5582,113.9633 85.0692,115.0353 84.2172,115.7773 C83.3562,116.5233 82.2572,116.8483 81.1152,116.6903 L75.5552,115.8953 C75.1832,115.8353 74.8102,115.9373 74.5062,116.1623 C74.2002,116.3923 74.0022,116.7253 73.9482,117.1003 C73.8372,117.8753 74.3792,118.5963 75.1562,118.7073 L75.4852,118.7553 L75.4772,118.7723 L91.6822,122.0143 C92.0292,122.0853 92.3952,122.0203 92.6912,121.8383 L117.4892,106.9113 C118.5222,106.2233 119.8992,106.2623 120.9052,107.0173 C121.6052,107.5413 122.0342,108.3423 122.0842,109.2153 C122.1362,110.0773 121.8052,110.9343 121.1982,111.5063 M122.6022,104.7413 C120.6392,103.2673 117.9732,103.1773 115.9692,104.5143 L91.6982,119.1183 L91.6082,119.1013 L85.9902,117.9783 L86.3202,117.6603 C87.6602,116.3653 88.3992,114.6503 88.3992,112.8283 C88.3992,109.9263 86.5492,107.3593 83.7962,106.4413 L67.5022,101.0103 C67.2432,100.9253 66.9742,100.9143 66.7082,100.9803 L55.1402,103.8723 L55.1022,103.6083 C54.8852,102.0603 53.6272,100.9373 52.1092,100.9373 L43.8072,100.9373 C43.0232,100.9373 42.3862,101.5733 42.3862,102.3573 C42.3862,103.1403 43.0232,103.7773 43.8072,103.7773 L52.3492,103.7773 L52.3492,134.1463 L43.8072,134.1463 C43.0232,134.1463 42.3862,134.7823 42.3862,135.5673 C42.3862,136.3503 43.0232,136.9863 43.8072,136.9863 L52.1092,136.9863 C53.8082,136.9863 55.1902,135.6053 55.1902,133.9053 L55.1902,133.1213 L55.3232,133.0563 L60.5112,130.4603 L60.6072,130.4943 L87.8092,139.9333 C88.5882,140.1803 89.4072,140.3073 90.2382,140.3073 C92.3062,140.3073 94.2612,139.5343 95.7412,138.1293 L123.1252,113.5963 C124.3632,112.4223 125.0192,110.7643 124.9192,109.0523 C124.8232,107.3433 123.9782,105.7723 122.6022,104.7413" id="Fill-238" fill="#FF3131"></path>
            <path d="M98.8574,68.3989 C98.8574,69.1699 98.2274,69.7979 97.4524,69.7979 C96.6774,69.7979 96.0464,69.1699 96.0464,68.3989 L96.0464,67.6999 C96.0464,67.3139 95.7324,66.9999 95.3444,66.9999 L92.2814,66.9999 C91.2584,66.9999 90.4254,67.8299 90.4254,68.8469 C90.4254,69.6509 90.9354,70.3579 91.6934,70.6099 L95.6684,71.9279 C97.5754,72.5619 98.8574,74.3329 98.8574,76.3359 C98.8574,78.7519 97.0044,80.7419 94.6414,80.9679 L94.6414,80.9909 C94.6414,81.7619 94.0114,82.3889 93.2364,82.3889 C92.4614,82.3889 91.8314,81.7619 91.8314,80.9909 L91.1284,80.9909 C89.1914,80.9909 87.6154,79.4219 87.6154,77.4929 L87.6154,76.7939 C87.6154,76.0209 88.2454,75.3939 89.0204,75.3939 C89.7954,75.3939 90.4254,76.0209 90.4254,76.7939 L90.4254,77.4929 C90.4254,77.8779 90.7404,78.1919 91.1284,78.1919 L94.1914,78.1919 C95.2144,78.1919 96.0464,77.3649 96.0464,76.3459 C96.0464,75.5449 95.5374,74.8359 94.7784,74.5829 L90.8044,73.2639 C88.8974,72.6309 87.6154,70.8609 87.6154,68.8579 C87.6154,66.4429 89.4684,64.4509 91.8314,64.2229 L91.8314,64.2019 C91.8314,63.4299 92.4614,62.8019 93.2364,62.8019 C94.0114,62.8019 94.6414,63.4299 94.6414,64.2019 L95.3444,64.2019 C97.2814,64.2019 98.8574,65.7699 98.8574,67.6999 L98.8574,68.3989 Z M93.2364,55.8069 C83.9384,55.8069 76.3734,63.3379 76.3734,72.5959 C76.3734,81.8539 83.9384,89.3839 93.2364,89.3839 C102.5344,89.3839 110.1004,81.8539 110.1004,72.5959 C110.1004,63.3379 102.5344,55.8069 93.2364,55.8069 Z" id="Fill-240" fill="#FF3131"></path>
            <path d="M97.4521,69.7983 C98.2271,69.7983 98.8571,69.1703 98.8571,68.3993 L98.8571,67.6993 C98.8571,65.7703 97.2811,64.2013 95.3441,64.2013 L94.6411,64.2013 C94.6411,63.4303 94.0111,62.8023 93.2361,62.8023 C92.4621,62.8023 91.8311,63.4303 91.8311,64.2013 L91.8311,64.2233 C89.4691,64.4503 87.6151,66.4433 87.6151,68.8583 C87.6151,70.8603 88.8971,72.6313 90.8051,73.2643 L94.7781,74.5823 C95.5371,74.8353 96.0471,75.5443 96.0471,76.3463 C96.0471,77.3643 95.2151,78.1923 94.1911,78.1923 L91.1281,78.1923 C90.7411,78.1923 90.4261,77.8783 90.4261,77.4923 L90.4261,76.7933 C90.4261,76.0213 89.7951,75.3943 89.0201,75.3943 C88.2451,75.3943 87.6151,76.0213 87.6151,76.7933 L87.6151,77.4923 C87.6151,79.4223 89.1911,80.9903 91.1281,80.9903 L91.8311,80.9903 C91.8311,81.7623 92.4621,82.3893 93.2361,82.3893 C94.0111,82.3893 94.6411,81.7623 94.6411,80.9903 L94.6411,80.9683 C97.0041,80.7413 98.8571,78.7513 98.8571,76.3353 C98.8571,74.3323 97.5761,72.5623 95.6681,71.9283 L91.6941,70.6103 C90.9351,70.3583 90.4261,69.6513 90.4261,68.8473 C90.4261,67.8293 91.2581,66.9993 92.2811,66.9993 L95.3441,66.9993 C95.7321,66.9993 96.0471,67.3143 96.0471,67.6993 L96.0471,68.3993 C96.0471,69.1703 96.6781,69.7983 97.4521,69.7983" id="Fill-242" fill="#FFFFFF"></path>
            <polyline id="Stroke-244" stroke="#FFE3E3" stroke-width="3" stroke-linecap="round" stroke-linejoin="round" points="85.5776 17.3071 92.6006 10.2851 85.2566 7.3441 91.3736 0.7781"></polyline>
        </g>
    </g>
</svg>