<?xml version="1.0" encoding="UTF-8"?>
<svg width="161px" height="143px" viewBox="0 0 161 143" version="1.1" xmlns="http://www.w3.org/2000/svg" xmlns:xlink="http://www.w3.org/1999/xlink">
    <!-- Generator: Sketch 50.2 (55047) - http://www.bohemiancoding.com/sketch -->
    <title>Group 326</title>
    <desc>Created with Sketch.</desc>
    <defs></defs>
    <g id="Page-1" stroke="none" stroke-width="1" fill="none" fill-rule="evenodd">
        <g id="Group-326" transform="translate(0.000000, 1.000000)">
            <path d="M21.624,93.8296 C21.624,94.6656 20.946,95.3426 20.111,95.3426 L8.009,95.3426 C7.173,95.3426 6.496,94.6656 6.496,93.8296 C6.496,92.9946 7.173,92.3166 8.009,92.3166 L20.111,92.3166 C20.946,92.3166 21.624,92.9946 21.624,93.8296 Z M9.521,86.2656 L18.598,86.2656 L18.598,77.1886 L9.521,77.1886 L9.521,86.2656 Z M6.496,74.7676 L6.496,88.6856 C6.496,89.0206 6.767,89.2916 7.101,89.2916 L21.02,89.2916 C21.353,89.2916 21.624,89.0206 21.624,88.6856 L21.624,74.7676 C21.624,74.4336 21.353,74.1636 21.02,74.1636 L7.101,74.1636 C6.767,74.1636 6.496,74.4336 6.496,74.7676 Z M24.649,101.3936 C24.649,103.0616 23.292,104.4196 21.624,104.4196 L6.496,104.4196 C4.827,104.4196 3.47,103.0616 3.47,101.3936 L3.47,71.4366 L9.463,41.4746 C9.502,41.2786 9.521,41.0806 9.521,40.8816 L18.599,40.8816 C18.599,41.0806 18.618,41.2786 18.657,41.4746 L24.649,71.4366 L24.649,101.3936 Z M9.521,37.8546 L18.598,37.8546 L18.598,34.8296 L9.521,34.8296 L9.521,37.8546 Z M21.624,40.8816 L21.624,33.3166 C21.624,32.4806 20.947,31.8046 20.111,31.8046 L8.009,31.8046 C7.173,31.8046 6.496,32.4806 6.496,33.3166 L6.496,40.8816 L0.444,71.1376 L0.444,101.3936 C0.444,104.7356 3.154,107.4456 6.496,107.4456 L21.624,107.4456 C24.967,107.4456 27.676,104.7356 27.676,101.3936 L27.676,71.1376 L21.624,40.8816 Z" id="Fill-304" fill="#FFE3E3"></path>
            <path d="M105.5781,67.6909 C105.4901,67.6749 105.4101,67.6379 105.3171,67.6379 L96.0951,67.6379 C95.2461,67.6379 94.5571,68.3269 94.5571,69.1749 C94.5571,70.0239 95.2461,70.7119 96.0951,70.7119 L103.7801,70.7119 L103.7801,104.5299 L85.3351,104.5299 L85.3351,70.6429 C89.3801,67.5869 91.9081,62.6279 91.4241,57.0579 C91.0261,52.4839 88.5031,48.6339 84.9491,46.1179 L97.0591,46.1179 C103.1511,46.1179 108.7281,50.2949 109.7491,56.2999 C110.4921,60.6719 108.8751,64.8799 105.5781,67.6909 M83.4811,68.1899 L82.2601,69.1129 L82.2601,70.6429 L82.2601,104.5299 L45.3681,104.5299 L45.3681,70.6429 L45.3681,69.1129 L44.1471,68.1899 C40.7251,65.6039 38.9001,61.5429 39.2671,57.3249 C39.8131,51.0409 45.4731,46.1179 52.1511,46.1179 L75.4771,46.1179 C82.1561,46.1179 87.8151,51.0409 88.3611,57.3249 C88.7271,61.5429 86.9031,65.6039 83.4811,68.1899 M112.9441,57.0579 C112.2441,49.0069 105.0791,43.0439 96.9981,43.0439 L52.1511,43.0439 C44.0701,43.0439 36.9041,49.0069 36.2041,57.0579 C35.7211,62.6279 38.2491,67.5869 42.2941,70.6429 L42.2941,104.5299 C42.2941,106.2279 43.6711,107.6039 45.3681,107.6039 L103.7801,107.6039 C105.4781,107.6039 106.8541,106.2279 106.8541,104.5299 L106.8541,70.6429 C110.9001,67.5869 113.4281,62.6279 112.9441,57.0579" id="Fill-306" fill="#FF3131"></path>
            <path d="M65.4668,138.7729 C48.9748,136.7399 32.6008,134.4419 13.2718,131.4489 C12.3208,131.3009 11.5738,130.2469 11.5738,128.9079 C11.5738,127.6299 12.3748,126.5049 13.3978,126.3469 C19.7518,125.3629 26.7268,124.4979 32.3988,123.6539 L32.3988,129.7889 C32.3988,130.5699 33.0298,131.2019 33.8108,131.2019 C34.5908,131.2009 35.2238,130.5699 35.2238,129.7889 L35.2238,123.2919 C35.2238,123.2719 35.2128,123.2549 35.2118,123.2349 C37.1228,122.9539 39.0128,122.6769 40.8808,122.4089 C40.8798,122.4209 40.8738,122.4309 40.8738,122.4439 L40.8738,128.9419 C40.8738,129.7219 41.5058,130.3549 42.2858,130.3549 C43.0668,130.3539 43.6988,129.7219 43.6988,128.9419 L43.6988,122.4439 C43.6978,122.2939 43.6568,122.1559 43.6128,122.0209 C45.5348,121.7479 47.4488,121.4799 49.3488,121.2179 L49.3498,126.1169 C49.3498,126.8969 49.9818,127.5289 50.7618,127.5289 C51.5418,127.5289 52.1748,126.8969 52.1738,126.1169 L52.1738,121.0309 C52.1748,120.9619 52.1448,120.9029 52.1358,120.8369 C54.0298,120.5809 55.9268,120.3299 57.8238,120.0819 L57.8238,123.2919 C57.8238,124.0719 58.4568,124.7039 59.2378,124.7039 C60.0178,124.7039 60.6498,124.0709 60.6508,123.2919 L60.6498,119.7169 C62.2478,119.5129 63.8478,119.3089 65.4658,119.1099 C67.6268,118.8439 69.7698,119.5369 71.4998,121.0619 C73.5928,122.9059 74.7978,125.6879 74.8078,128.6919 L74.8088,128.9079 L74.8088,129.1239 L75.5508,129.1319 L75.5508,129.1569 L74.8088,129.1569 C74.8088,132.1689 73.6068,134.9599 71.5108,136.8119 C69.7788,138.3439 67.6328,139.0409 65.4668,138.7729" id="Fill-308" fill="#FF3131"></path>
            <path d="M78.8008,130.354 C76.8878,130.354 75.6818,129.622 74.9768,128.945 C75.6828,128.268 76.8918,127.529 78.8008,127.529 C80.6678,127.529 82.3958,128.206 83.7218,128.941 C82.3958,129.677 80.6668,130.353 78.8008,130.354 M79.9158,138.796 C78.8578,138.67 77.4558,138.144 76.2578,136.488 C75.2628,135.115 74.7948,133.504 74.5678,132.09 C75.2538,132.485 76.0538,132.823 77.0308,133.007 C77.7258,133.543 78.3838,134.162 78.9198,134.901 C79.6458,135.903 80.0138,136.914 80.0128,137.906 C80.0128,138.233 79.9748,138.532 79.9158,138.796 M76.2568,121.395 C77.4568,119.739 78.8578,119.213 79.9158,119.086 C79.9748,119.351 80.0138,119.651 80.0138,119.977 C80.0128,120.969 79.6458,121.98 78.9198,122.982 C78.3848,123.721 77.7268,124.338 77.0318,124.875 C76.0538,125.059 75.2538,125.398 74.5668,125.792 C74.7948,124.377 75.2628,122.768 76.2568,121.395 M87.1708,127.826 C85.8528,126.828 83.6288,125.458 80.9508,124.933 C81.0318,124.83 81.1308,124.747 81.2078,124.639 C82.4528,122.921 82.8378,121.312 82.8378,119.977 C82.8378,118.678 82.4728,117.639 82.1778,117.012 C81.9748,116.581 81.5488,116.289 81.0728,116.25 C79.6468,116.138 76.4388,116.328 73.9688,119.738 C73.2728,120.7 72.8208,121.729 72.4668,122.759 C72.7598,124.497 72.9578,126.264 73.0378,128.057 C73.1498,130.54 72.9678,132.975 72.5458,135.347 C72.8888,136.302 73.3228,137.252 73.9688,138.145 C76.4398,141.555 79.6468,141.745 81.0728,141.632 C81.5488,141.595 81.9748,141.301 82.1778,140.87 C82.4728,140.244 82.8378,139.205 82.8378,137.906 C82.8378,136.572 82.4518,134.962 81.2078,133.245 C81.1298,133.137 81.0318,133.053 80.9498,132.95 C83.6288,132.424 85.8528,131.055 87.1708,130.057 C87.5408,129.777 87.7268,129.359 87.7268,128.941 C87.7268,128.523 87.5408,128.106 87.1708,127.826" id="Fill-310" fill="#FF3131"></path>
            <path d="M153.7646,79.6108 C150.9086,79.6108 149.1336,76.7708 149.1336,72.1998 C149.1336,66.1708 151.9786,61.0838 153.7646,61.0838 C155.5516,61.0838 158.3966,66.1708 158.3966,72.1998 C158.3966,76.7708 156.6216,79.6108 153.7646,79.6108 Z M154.6916,102.7688 C154.6916,103.2798 154.2756,103.6948 153.7646,103.6948 C153.2546,103.6948 152.8386,103.2798 152.8386,102.7688 L152.8386,89.7998 C152.8386,89.2898 153.2546,88.8738 153.7646,88.8738 C154.2756,88.8738 154.6916,89.2898 154.6916,89.7998 L154.6916,102.7688 Z M160.2486,72.1998 C160.2486,66.0598 157.3466,59.2308 153.7646,59.2308 C150.1836,59.2308 147.2806,66.0598 147.2806,72.1998 C147.2806,77.7948 149.6996,80.8558 152.8386,81.3598 L152.8386,87.1908 C151.7626,87.5738 150.9866,88.5918 150.9866,89.7998 L150.9866,102.7688 C150.9866,104.3038 152.2306,105.5478 153.7646,105.5478 C155.2996,105.5478 156.5436,104.3038 156.5436,102.7688 L156.5436,89.7998 C156.5436,88.5918 155.7676,87.5738 154.6916,87.1908 L154.6916,81.3598 C157.8296,80.8558 160.2486,77.7948 160.2486,72.1998 Z M139.8696,75.9048 C139.8696,76.9258 139.0386,77.7568 138.0176,77.7568 L132.4586,77.7568 C131.4376,77.7568 130.6066,76.9258 130.6066,75.9048 L130.6066,74.0518 L139.8696,74.0518 L139.8696,75.9048 Z M136.1646,102.7688 C136.1646,103.2798 135.7476,103.6948 135.2386,103.6948 C134.7286,103.6948 134.3116,103.2798 134.3116,102.7688 L134.3116,89.7998 C134.3116,89.2898 134.7286,88.8738 135.2386,88.8738 C135.7476,88.8738 136.1646,89.2898 136.1646,89.7998 L136.1646,102.7688 Z M140.7956,59.2308 C140.2846,59.2308 139.8696,59.6458 139.8696,60.1578 L139.8696,72.1998 L136.1646,72.1998 L136.1646,60.1578 C136.1646,59.6458 135.7496,59.2308 135.2386,59.2308 C134.7266,59.2308 134.3116,59.6458 134.3116,60.1578 L134.3116,72.1998 L130.6066,72.1998 L130.6066,60.1578 C130.6066,59.6458 130.1926,59.2308 129.6806,59.2308 C129.1676,59.2308 128.7536,59.6458 128.7536,60.1578 L128.7536,75.9048 C128.7536,77.9518 130.4126,79.6108 132.4586,79.6108 L134.3116,79.6108 L134.3116,87.1908 C133.2356,87.5738 132.4586,88.5918 132.4586,89.7998 L132.4586,102.7688 C132.4586,104.3038 133.7036,105.5478 135.2386,105.5478 C136.7726,105.5478 138.0176,104.3038 138.0176,102.7688 L138.0176,89.7998 C138.0176,88.5918 137.2416,87.5738 136.1646,87.1908 L136.1646,79.6108 L138.0176,79.6108 C140.0636,79.6108 141.7226,77.9518 141.7226,75.9048 L141.7226,60.1578 C141.7226,59.6458 141.3086,59.2308 140.7956,59.2308 Z" id="Fill-312" fill="#FFE3E3"></path>
            <path d="M153.7646,79.6108 C150.9086,79.6108 149.1336,76.7708 149.1336,72.1998 C149.1336,66.1708 151.9786,61.0838 153.7646,61.0838 C155.5516,61.0838 158.3966,66.1708 158.3966,72.1998 C158.3966,76.7708 156.6216,79.6108 153.7646,79.6108 Z M154.6916,102.7688 C154.6916,103.2798 154.2756,103.6948 153.7646,103.6948 C153.2546,103.6948 152.8386,103.2798 152.8386,102.7688 L152.8386,89.7998 C152.8386,89.2898 153.2546,88.8738 153.7646,88.8738 C154.2756,88.8738 154.6916,89.2898 154.6916,89.7998 L154.6916,102.7688 Z M160.2486,72.1998 C160.2486,66.0598 157.3466,59.2308 153.7646,59.2308 C150.1836,59.2308 147.2806,66.0598 147.2806,72.1998 C147.2806,77.7948 149.6996,80.8558 152.8386,81.3598 L152.8386,87.1908 C151.7626,87.5738 150.9866,88.5918 150.9866,89.7998 L150.9866,102.7688 C150.9866,104.3038 152.2306,105.5478 153.7646,105.5478 C155.2996,105.5478 156.5436,104.3038 156.5436,102.7688 L156.5436,89.7998 C156.5436,88.5918 155.7676,87.5738 154.6916,87.1908 L154.6916,81.3598 C157.8296,80.8558 160.2486,77.7948 160.2486,72.1998 Z M139.8696,75.9048 C139.8696,76.9258 139.0386,77.7568 138.0176,77.7568 L132.4586,77.7568 C131.4376,77.7568 130.6066,76.9258 130.6066,75.9048 L130.6066,74.0518 L139.8696,74.0518 L139.8696,75.9048 Z M136.1646,102.7688 C136.1646,103.2798 135.7476,103.6948 135.2386,103.6948 C134.7286,103.6948 134.3116,103.2798 134.3116,102.7688 L134.3116,89.7998 C134.3116,89.2898 134.7286,88.8738 135.2386,88.8738 C135.7476,88.8738 136.1646,89.2898 136.1646,89.7998 L136.1646,102.7688 Z M140.7956,59.2308 C140.2846,59.2308 139.8696,59.6458 139.8696,60.1578 L139.8696,72.1998 L136.1646,72.1998 L136.1646,60.1578 C136.1646,59.6458 135.7496,59.2308 135.2386,59.2308 C134.7266,59.2308 134.3116,59.6458 134.3116,60.1578 L134.3116,72.1998 L130.6066,72.1998 L130.6066,60.1578 C130.6066,59.6458 130.1926,59.2308 129.6806,59.2308 C129.1676,59.2308 128.7536,59.6458 128.7536,60.1578 L128.7536,75.9048 C128.7536,77.9518 130.4126,79.6108 132.4586,79.6108 L134.3116,79.6108 L134.3116,87.1908 C133.2356,87.5738 132.4586,88.5918 132.4586,89.7998 L132.4586,102.7688 C132.4586,104.3038 133.7036,105.5478 135.2386,105.5478 C136.7726,105.5478 138.0176,104.3038 138.0176,102.7688 L138.0176,89.7998 C138.0176,88.5918 137.2416,87.5738 136.1646,87.1908 L136.1646,79.6108 L138.0176,79.6108 C140.0636,79.6108 141.7226,77.9518 141.7226,75.9048 L141.7226,60.1578 C141.7226,59.6458 141.3086,59.2308 140.7956,59.2308 Z" id="Stroke-314" stroke="#FFE3E3" stroke-width="0.5"></path>
            <path d="M84.7402,0.5435 L84.7402,3.6865" id="Stroke-316" stroke="#FF3131" stroke-width="2" stroke-linecap="round"></path>
            <path d="M84.7402,9.9722 L84.7402,13.1152" id="Stroke-318" stroke="#FF3131" stroke-width="2" stroke-linecap="round"></path>
            <path d="M78.4541,6.8286 L81.5981,6.8286" id="Stroke-320" stroke="#FF3131" stroke-width="2" stroke-linecap="round"></path>
            <path d="M87.8828,6.8286 L91.0258,6.8286" id="Stroke-322" stroke="#FF3131" stroke-width="2" stroke-linecap="round"></path>
            <path d="M77.459,21.5278 L75.421,20.7758 C73.771,20.1678 72.47,18.8658 71.86,17.2158 L71.108,15.1768 C71.081,15.0998 71.007,15.0488 70.926,15.0488 C70.844,15.0488 70.772,15.0998 70.743,15.1768 L69.99,17.2158 C69.383,18.8658 68.081,20.1678 66.431,20.7758 L64.392,21.5278 C64.315,21.5558 64.265,21.6298 64.265,21.7108 C64.265,21.7928 64.315,21.8658 64.392,21.8928 L66.431,22.6458 C68.081,23.2548 69.383,24.5548 69.99,26.2058 L70.743,28.2448 C70.772,28.3218 70.844,28.3728 70.926,28.3728 C71.007,28.3728 71.081,28.3218 71.108,28.2448 L71.86,26.2058 C72.47,24.5548 73.771,23.2548 75.421,22.6458 L77.459,21.8928 C77.536,21.8658 77.588,21.7928 77.588,21.7108 C77.588,21.6298 77.536,21.5558 77.459,21.5278" id="Fill-324" fill="#FF3131"></path>
        </g>
    </g>
</svg>