<?xml version="1.0" encoding="UTF-8"?>
<svg width="73px" height="64px" viewBox="0 0 73 64" version="1.1" xmlns="http://www.w3.org/2000/svg" xmlns:xlink="http://www.w3.org/1999/xlink">
    <!-- Generator: Sketch 50.2 (55047) - http://www.bohemiancoding.com/sketch -->
    <title>Fill 218</title>
    <desc>Created with Sketch.</desc>
    <defs></defs>
    <g id="Page-1" stroke="none" stroke-width="1" fill="none" fill-rule="evenodd">
        <path d="M60.644761,25.95 L36.041761,3.396 L11.437761,25.95 L11.533761,25.95 L11.533761,59.108 C11.533761,59.904 12.180761,60.55 12.975761,60.55 L59.108761,60.55 C59.903761,60.55 60.549761,59.904 60.549761,59.108 L60.549761,25.95 L60.644761,25.95 Z M71.704761,34.133 C71.419761,34.442 71.031761,34.6 70.641761,34.6 C70.293761,34.6 69.944761,34.473 69.666761,34.22 L63.433761,28.507 L63.433761,59.108 C63.433761,61.498 61.497761,63.433 59.108761,63.433 L12.975761,63.433 C10.586761,63.433 8.64976102,61.498 8.64976102,59.108 L8.64976102,28.506 L2.41576102,34.22 C1.82776102,34.758 0.916761021,34.719 0.378761021,34.133 C-0.159238979,33.544 -0.119238979,32.632 0.467761021,32.095 L35.067761,0.378 C35.619761,-0.126 36.463761,-0.126 37.015761,0.378 L71.615761,32.095 C72.202761,32.632 72.242761,33.544 71.704761,34.133 Z M34.600761,43.25 L37.483761,43.25 L37.483761,25.949 L34.600761,25.949 L34.600761,43.25 Z M34.600761,51.9 L37.483761,51.9 L37.483761,46.133 L34.600761,46.133 L34.600761,51.9 Z" id="Fill-218" fill="#FFFFFF"></path>
    </g>
</svg>