<?xml version="1.0" encoding="UTF-8"?>
<svg width="74px" height="62px" viewBox="0 0 74 62" version="1.1" xmlns="http://www.w3.org/2000/svg" xmlns:xlink="http://www.w3.org/1999/xlink">
    <!-- Generator: Sketch 50.2 (55047) - http://www.bohemiancoding.com/sketch -->
    <title>Fill 207</title>
    <desc>Created with Sketch.</desc>
    <defs></defs>
    <g id="Page-1" stroke="none" stroke-width="1" fill="none" fill-rule="evenodd">
        <path d="M41.2648462,51.581 C41.2648462,52.395 40.6058462,53.055 39.7908462,53.055 L33.8968462,53.055 C33.0818462,53.055 32.4228462,52.395 32.4228462,51.581 C32.4228462,50.768 33.0818462,50.107 33.8968462,50.107 L39.7908462,50.107 C40.6058462,50.107 41.2648462,50.768 41.2648462,51.581 Z M44.2128462,35.37 L29.4748462,35.37 L29.4748462,32.423 C29.4748462,29.172 32.1188462,26.527 35.3698462,26.527 L38.3178462,26.527 C41.5688462,26.527 44.2128462,29.172 44.2128462,32.423 L44.2128462,35.37 Z M38.3178462,23.58 L35.3698462,23.58 C30.4868462,23.58 26.5278462,27.539 26.5278462,32.423 L26.5278462,35.37 C26.5278462,36.998 27.8468462,38.317 29.4748462,38.317 L44.2128462,38.317 C45.8408462,38.317 47.1608462,36.998 47.1608462,35.37 L47.1608462,32.423 C47.1608462,27.539 43.2018462,23.58 38.3178462,23.58 Z M65.6598462,21.602 L58.1358462,17.841 C57.6778462,17.614 57.1348462,17.636 56.7028462,17.905 C56.2678462,18.174 56.0028462,18.647 56.0028462,19.159 L56.0028462,38.432 C51.5588462,39.074 46.6988462,42.921 45.8158462,56.247 C45.7168462,57.763 44.4288462,58.95 42.8858462,58.95 L30.8018462,58.95 C29.2588462,58.95 27.9708462,57.763 27.8718462,56.247 C26.9898462,42.921 22.1288462,39.074 17.6848462,38.432 L17.6848462,19.159 C17.6848462,18.647 17.4198462,18.174 16.9858462,17.905 C16.5508462,17.633 16.0068462,17.613 15.5518462,17.841 L8.0288462,21.602 L3.3868462,12.319 L18.1148462,2.947 L28.4158462,2.947 C29.4348462,5.44 32.0438462,8.843 36.8438462,8.843 C41.6438462,8.843 44.2528462,5.44 45.2718462,2.947 L55.5738462,2.947 L70.3008462,12.319 L65.6598462,21.602 Z M48.8068462,55.813 C49.2918462,49.604 50.9808462,42.594 56.0028462,41.446 L56.0028462,45.686 C56.0028462,50.735 52.8928462,54.931 48.8068462,55.813 Z M17.6848462,45.686 L17.6848462,41.446 C22.7068462,42.594 24.3958462,49.604 24.8808462,55.813 C20.7948462,54.931 17.6848462,50.735 17.6848462,45.686 Z M73.0048462,10.547 L56.7938462,0.23 C56.5568462,0.081 56.2838462,0 56.0028462,0 L44.2128462,0 C43.5418462,0 42.9528462,0.461 42.7858462,1.109 C42.7338462,1.306 41.4858462,5.894 36.8438462,5.894 C32.2018462,5.894 30.9538462,1.306 30.9048462,1.117 C30.7408462,0.461 30.1518462,0 29.4748462,0 L17.6848462,0 C17.4048462,0 17.1308462,0.081 16.8938462,0.23 L0.682846201,10.547 C0.0458462007,10.952 -0.182153799,11.774 0.155846201,12.449 L6.0508462,24.239 C6.4158462,24.968 7.2968462,25.26 8.0288462,24.898 L14.7378462,21.544 L14.7378462,45.686 C14.7378462,52.688 19.5768462,58.38 25.6638462,58.857 C26.6718462,60.667 28.5978462,61.897 30.8018462,61.897 L42.8858462,61.897 C45.0878462,61.897 47.0138462,60.668 48.0218462,58.861 C54.2028462,58.399 58.9508462,52.811 58.9508462,45.686 L58.9508462,21.544 L65.6598462,24.898 C66.3878462,25.26 67.2718462,24.968 67.6368462,24.239 L73.5328462,12.449 C73.8698462,11.774 73.6418462,10.952 73.0048462,10.547 Z" id="Fill-207" fill="#FFFFFF"></path>
    </g>
</svg>