<?xml version="1.0" encoding="UTF-8"?>
<svg width="68px" height="68px" viewBox="0 0 68 68" version="1.1" xmlns="http://www.w3.org/2000/svg" xmlns:xlink="http://www.w3.org/1999/xlink">
    <!-- Generator: Sketch 50.2 (55047) - http://www.bohemiancoding.com/sketch -->
    <title>Fill 216</title>
    <desc>Created with Sketch.</desc>
    <defs></defs>
    <g id="Page-1" stroke="none" stroke-width="1" fill="none" fill-rule="evenodd">
        <path d="M54.699,54 L45.201,54 L49.95,45.858 L54.699,54 Z M59.4,56.699 L49.95,40.5 L40.5,56.699 L59.4,56.699 Z M17.55,55.581 L11.919,49.949 L17.55,44.318 L23.181,49.949 L17.55,55.581 Z M8.099,49.949 L17.55,59.399 L27,49.949 L17.55,40.5 L8.099,49.949 Z M31.05,24.3 C27.328,24.3 24.3,21.271 24.3,17.55 C24.3,13.827 27.328,10.8 31.05,10.8 C34.771,10.8 37.8,13.827 37.8,17.55 C37.8,21.271 34.771,24.3 31.05,24.3 Z M40.5,17.55 C40.5,12.331 36.269,8.1 31.05,8.1 C25.831,8.1 21.599,12.331 21.599,17.55 C21.599,22.769 25.831,27 31.05,27 C36.269,27 40.5,22.769 40.5,17.55 Z M35.1,64.8 L64.8,64.8 L64.8,35.1 L35.1,35.1 L35.1,64.8 Z M2.7,64.8 L32.4,64.8 L32.4,35.1 L2.7,35.1 L2.7,64.8 Z M16.2,32.399 L45.9,32.399 L45.9,2.699 L16.2,2.699 L16.2,32.399 Z M64.8,32.399 L48.599,32.399 L48.599,2.699 C48.599,1.208 47.391,0 45.9,0 L16.2,0 C14.709,0 13.5,1.208 13.5,2.699 L13.5,32.399 L2.7,32.399 C1.209,32.399 0,33.608 0,35.1 L0,64.8 C0,66.291 1.209,67.5 2.7,67.5 L32.4,67.5 C32.902,67.5 33.346,67.325 33.75,67.086 C34.153,67.325 34.597,67.5 35.099,67.5 L64.8,67.5 C66.291,67.5 67.5,66.291 67.5,64.8 L67.5,35.1 C67.5,33.608 66.291,32.399 64.8,32.399 Z" id="Fill-216" fill="#FFFFFF"></path>
    </g>
</svg>