<?xml version="1.0" encoding="UTF-8"?>
<svg width="74px" height="80px" viewBox="0 0 74 80" version="1.1" xmlns="http://www.w3.org/2000/svg" xmlns:xlink="http://www.w3.org/1999/xlink">
    <!-- Generator: Sketch 50.2 (55047) - http://www.bohemiancoding.com/sketch -->
    <title>Group 215</title>
    <desc>Created with Sketch.</desc>
    <defs></defs>
    <g id="Page-1" stroke="none" stroke-width="1" fill="none" fill-rule="evenodd" stroke-linecap="round" stroke-linejoin="round">
        <g id="Group-215" transform="translate(2.000000, 2.000000)" stroke="#FFFFFF" stroke-width="2.5">
            <path d="M69.7495,64.2107 L57.3985,42.7387 C56.9685,41.8237 56.3225,41.0987 55.4615,40.5597 C54.6015,40.0227 53.6325,39.7527 52.5565,39.7527 L38.8335,39.7527 L37.2195,31.8427 L47.9555,31.8427 C48.6005,31.8967 49.2195,31.7877 49.8115,31.5197 C50.4035,31.2507 50.8605,30.8187 51.1835,30.2277 C51.6145,29.4747 51.7085,28.6677 51.4665,27.8067 C51.2245,26.9447 50.6995,26.2997 49.8925,25.8687 C49.4615,25.5997 48.9775,25.4657 48.4385,25.4657 L35.8475,25.4657 L35.1205,21.7527 C35.1205,21.6447 35.1075,21.5767 35.0805,21.5507 C35.0535,21.5227 35.0395,21.4557 35.0395,21.3487 L34.9595,21.1067 C34.5825,19.8687 33.8695,18.8467 32.8195,18.0387 C31.7705,17.2317 30.5465,16.8277 29.1465,16.8277 C27.4255,16.8277 25.9725,17.4067 24.7885,18.5647 C23.6045,19.7207 23.0125,21.1067 23.0125,22.7217 C23.0125,22.9897 23.0405,23.2057 23.0935,23.3657 L23.0125,23.3657 L27.4515,44.7577 C27.6675,45.9947 28.2595,47.0037 29.2285,47.7837 C30.1965,48.5647 31.3265,48.9537 32.6185,48.9537 C32.9955,48.9537 33.2905,48.9277 33.5065,48.8737 L51.8295,48.8737 L62.4845,67.4397 C62.8075,68.1387 63.2915,68.7037 63.9375,69.1347 C64.5825,69.5647 65.3365,69.7797 66.1975,69.7797 C67.2735,69.7797 68.2015,69.4037 68.9825,68.6497 C69.7625,67.8967 70.1525,66.9817 70.1525,65.9057 C70.1525,65.3137 70.0185,64.7487 69.7495,64.2107 Z M20.0665,10.5317 C19.6635,9.6167 19.4605,8.6217 19.4605,7.5457 C19.4605,6.5227 19.6635,5.5547 20.0665,4.6397 C20.4705,3.7257 21.0075,2.9317 21.6815,2.2587 C22.3535,1.5857 23.1475,1.0477 24.0615,0.6447 C24.9775,0.2407 25.9725,0.0387 27.0485,0.0387 C28.0715,0.0387 29.0405,0.2407 29.9545,0.6447 C30.8695,1.0477 31.6765,1.5857 32.3755,2.2587 C33.0755,2.9317 33.6135,3.7257 33.9905,4.6397 C34.3675,5.5547 34.5555,6.5227 34.5555,7.5457 C34.5555,9.6447 33.8295,11.4337 32.3755,12.9137 C30.9235,14.3937 29.1475,15.1337 27.0485,15.1337 C25.9725,15.1337 24.9775,14.9317 24.0615,14.5277 C23.1475,14.1237 22.3535,13.5867 21.6815,12.9137 C21.0075,12.2407 20.4705,11.4467 20.0665,10.5317 Z" id="Stroke-211"></path>
            <path d="M14.3735,26.7166 C11.4735,27.9666 8.9275,30.0846 6.8545,32.4416 C5.9485,33.4706 5.1145,34.5646 4.3655,35.7136 C2.8945,37.9726 1.7585,40.4496 1.0445,43.0506 C0.5565,44.8316 0.2675,46.6656 0.1835,48.5096 C0.0185,52.1376 0.5125,55.7646 1.8315,59.2266 C3.1505,62.3596 4.7995,64.9966 7.1075,67.4696 C9.5805,70.1076 12.3835,72.0856 15.5155,73.5706 C18.6485,75.2186 22.1105,75.7126 25.5725,76.0426 C29.3645,76.2076 33.1565,75.3836 36.7835,73.8996 C42.0595,71.5916 46.6755,67.4696 49.3865,62.1486" id="Stroke-213"></path>
        </g>
    </g>
</svg>